<?xml version="1.0" encoding="UTF-8"?>
<svg width="1440px" height="251px" viewBox="0 0 1440 251" version="1.1" xmlns="http://www.w3.org/2000/svg" xmlns:xlink="http://www.w3.org/1999/xlink">
    <!-- Generator: Sketch 50.2 (55047) - http://www.bohemiancoding.com/sketch -->
    <title>desktop_cloud image</title>
    <desc>Created with Sketch.</desc>
    <defs>
        <rect id="path-1" x="0" y="0" width="1440" height="251"></rect>
    </defs>
    <g id="desktop_cloud-image" stroke="none" stroke-width="1" fill="none" fill-rule="evenodd">
        <g id="Group-4-Copy-2">
            <mask id="mask-2" fill="white">
                <use xlink:href="#path-1"></use>
            </mask>
            <g id="Mask"></g>
            <g id="Group-4" mask="url(#mask-2)">
                <g transform="translate(-26.000000, 4.000000)">
                    <polygon id="Path-30" fill="#8ABFFF" points="1212.29933 206.223472 1222.11074 198.846682 1235.05456 198.846682 1242.47299 192.560178 1255.91191 189.777124 1250.14544 198.000298 1266.91739 189.777124 1280.25924 187.202435 1299.52288 182.964052 1316.21555 176.713083 1329.04413 172 1337.85402 175.611671 1337.85402 186.101023 1346.24521 187.202435 1352.28027 189.662442 1352.28027 195.214013 1358.91074 198.000298 1355.09231 202.569804 1377.43173 206.223472 1387.46804 206.223472 1392 211.708818 1355.09231 214.737388 1326.83757 211.708818 1293.62373 211.708818 1261.77222 219 1219.21942 219 1194 219 1198.04171 214.737388 1212.29933 211.708818"></polygon>
                    <polygon id="Path-30-Copy-2" fill="#8ABFFF" points="115.299326 164.223472 125.110742 156.846682 138.054562 156.846682 145.472989 150.560178 158.91191 147.777124 153.145438 156.000298 169.917393 147.777124 183.259236 145.202435 202.522876 140.964052 219.215551 134.713083 232.044134 130 240.854021 133.611671 240.854021 144.101023 249.245213 145.202435 255.28027 147.662442 255.28027 153.214013 261.910742 156.000298 258.092315 160.569804 280.43173 164.223472 290.468045 164.223472 295 169.708818 258.092315 172.737388 229.837573 169.708818 196.62373 169.708818 164.772225 177 122.219416 177 97 177 101.041708 172.737388 115.299326 169.708818"></polygon>
                    <polygon id="Path-30-Copy" fill="#8ABFFF" points="1053.21618 53.8598374 1060.3022 48.5825778 1069.65052 48.5825778 1075.00827 44.0852943 1084.71416 42.0943334 1080.54948 47.9770854 1092.66256 42.0943334 1102.89751 18 1121.74863 18 1128.26679 32.7484883 1137.53187 29.3768099 1143.89457 31.9605524 1143.89457 39.4644988 1149.95488 40.2524347 1154.31353 42.0122915 1154.31353 45.9838135 1159.1022 47.9770854 1156.34445 51.2460513 1172.47847 53.8598374 1179.72692 53.8598374 1183 57.783983 1156.34445 59.9505829 1135.93825 57.783983 1111.95047 57.783983 1088.94661 63 1058.21402 63 1040 63 1042.91901 59.9505829 1053.21618 57.783983"></polygon>
                    <polygon id="Path-32" fill="#DBEBFF" points="1306.3394 33.9421798 1306.3394 21.8478387 1322.07342 16.0416101 1332.6698 6 1344.28786 6 1362.22979 6 1370.69787 16.0416101 1377.29242 21.8478387 1387.29967 21.8478387 1387.29967 26.2367617 1395.30865 30.8642645 1405.61046 33.9421798 1411 33.9421798 1411 37.9588454 1374.00886 41 1366.11269 37.9588454 1338.99101 37.9588454 1317.50598 41 1293.99769 41 1283 41 1286.67852 37.9588454 1299.53743 30.8642645"></polygon>
                    <polygon id="Path-32-Copy-2" fill="#DBEBFF" points="802.339398 27.9421798 802.339398 15.8478387 818.073416 10.0416101 828.669796 0 840.287865 0 858.229794 0 866.697875 10.0416101 873.292416 15.8478387 883.299666 15.8478387 883.299666 20.2367617 891.30865 24.8642645 901.610464 27.9421798 907 27.9421798 907 31.9588454 870.008862 35 862.112694 31.9588454 834.991008 31.9588454 813.505981 35 789.997693 35 779 35 782.678518 31.9588454 795.537429 24.8642645"></polygon>
                    <polygon id="Path-32-Copy-4" fill="#DBEBFF" points="23.339398 27.9421798 23.339398 15.8478387 39.0734162 10.0416101 49.6697958 0 61.2878649 0 79.2297938 0 87.6978748 10.0416101 94.2924161 15.8478387 104.299666 15.8478387 104.299666 20.2367617 112.30865 24.8642645 122.610464 27.9421798 128 27.9421798 128 31.9588454 91.0088617 35 83.1126939 31.9588454 55.9910082 31.9588454 34.5059808 35 10.9976929 35 0 35 3.67851776 31.9588454 16.5374286 24.8642645"></polygon>
                    <polygon id="Path-32-Copy" fill="#F9F9F9" points="886.339398 177.94218 886.339398 165.847839 902.073416 160.04161 912.669796 150 924.287865 150 942.229794 150 950.697875 160.04161 957.292416 165.847839 967.299666 165.847839 967.299666 170.236762 975.30865 174.864264 985.610464 177.94218 991 177.94218 991 181.958845 954.008862 185 946.112694 181.958845 918.991008 181.958845 897.505981 185 873.997693 185 863 185 866.678518 181.958845 879.537429 174.864264"></polygon>
                    <polygon id="Path-32-Copy-3" fill="#DBEBFF" points="958.339398 186.94218 958.339398 174.847839 974.073416 169.04161 984.669796 159 996.287865 159 1014.22979 159 1022.69787 169.04161 1029.29242 174.847839 1039.29967 174.847839 1039.29967 179.236762 1047.30865 183.864264 1057.61046 186.94218 1063 186.94218 1063 190.958845 1026.00886 194 1018.11269 190.958845 990.991008 190.958845 969.505981 194 945.997693 194 935 194 938.678518 190.958845 951.537429 183.864264"></polygon>
                </g>
            </g>
        </g>
    </g>
</svg>