<?xml version="1.0" encoding="UTF-8"?>
<svg width="117px" height="64px" viewBox="0 0 117 64" version="1.1" xmlns="http://www.w3.org/2000/svg" xmlns:xlink="http://www.w3.org/1999/xlink">
    <!-- Generator: Sketch 50.2 (55047) - http://www.bohemiancoding.com/sketch -->
    <title>footer yarn ball</title>
    <desc>Created with Sketch.</desc>
    <defs></defs>
    <g id="footer-yarn-ball" stroke="none" stroke-width="1" fill="none" fill-rule="evenodd">
        <g id="Group-Copy-3" transform="translate(1.000000, 2.000000)" stroke-width="2.4">
            <path d="M96.0967992,28.7651397 C96.0967992,43.3262011 84.2681021,55.1302793 69.6768398,55.1302793 C55.0854095,55.1302793 39.2513089,47.0735396 39.2513089,28.7651397 C39.2513089,10.4567397 55.0854095,2.4 69.6768398,2.4 C84.2681021,2.4 96.0967992,14.2040782 96.0967992,28.7651397 Z" id="Stroke-1" stroke="#FF6864"></path>
            <path d="M100.083223,33.3672603 C100.635601,47.9179307 91.7572347,51.3320648 77.1762172,51.8832938 C62.5953675,52.4346904 47.8334707,49.9141877 47.281092,35.3635173 C46.7285454,20.8130145 58.1007616,8.57050051 72.6819471,8.01927146 C87.2627967,7.46787481 99.5308439,18.8165899 100.083223,33.3672603 Z" id="Stroke-3" stroke="#FFE861"></path>
            <path d="M72.9305566,51.257541 C59.1582053,56.0672617 53.275179,48.6048036 48.4552591,34.8611164 C43.6353392,21.1174293 41.7039451,6.29692649 55.4764644,1.48703822 C69.2488156,-3.32268245 84.3207432,3.91971979 89.140663,17.6634069 C93.960415,31.4070941 86.7029078,46.4478203 72.9305566,51.257541 Z" id="Stroke-5" stroke="#61A9FF"></path>
            <path d="M90.3218441,28 C90.3218441,28 89.0919659,46.647933 80.3605532,52.3760894 C71.6289725,58.1042458 51.7001767,55.1553631 39.5174467,54.3780447 C3.17264101,52.0589944 -20.571078,55.5178771 25.2414215,59.3461453 C62.727765,62.4787151 83.3285181,51.7083799 114.693182,53.9441341" id="Stroke-7" stroke="#61A9FF" stroke-linecap="round"></path>
        </g>
    </g>
</svg>