<?xml version="1.0" encoding="UTF-8"?>
<svg width="93px" height="42px" viewBox="0 0 93 42" version="1.1" xmlns="http://www.w3.org/2000/svg" xmlns:xlink="http://www.w3.org/1999/xlink">
    <!-- Generator: Sketch 50.2 (55047) - http://www.bohemiancoding.com/sketch -->
    <title>formfield transition copy 13</title>
    <desc>Created with Sketch.</desc>
    <defs></defs>
    <g id="formfield-transition-copy-13" stroke="none" stroke-width="1" fill="none" fill-rule="evenodd">
        <g id="Group-4-Copy-2" transform="translate(1.000000, 0.000000)" fill="#231F20" stroke="#231F20" stroke-width="0.5">
            <g id="Group-3">
                <path d="M14.9001106,6.17351359 C14.5181901,5.78436796 13.8234815,5.63451359 13.019998,6.38045534 C10.7405609,8.49506699 6.51671325,12.110601 4.24791192,14.052999 C3.79492517,14.4407175 3.40913709,14.7708728 3.11713709,15.022533 C3.06589205,13.5178049 3.01464702,12.0639796 2.96340199,10.6096786 C2.90538874,8.97745534 2.84785894,7.34380485 2.79032914,5.63784369 C2.77679272,5.24584369 2.55585894,4.90902816 2.18360728,4.71350388 C1.72288543,4.47088252 1.1108457,4.47992136 0.695084106,4.73443592 C0.376978146,4.92948447 0.208256291,5.24156214 0.220825828,5.61215437 C0.345554305,9.29524175 0.499772848,15.2142515 0.64867351,20.9382126 C1.08425629,37.6105816 1.18191192,40.0396495 1.3143755,40.2589602 C1.62958079,40.7779796 2.3707,40.8926301 2.90780596,40.7375427 C3.43669338,40.584834 3.75528278,40.1971155 3.73981258,39.7256689 C3.63635563,36.6772029 3.55513709,32.9103874 3.47633576,29.2677369 C3.39898477,25.6793194 3.31873311,21.9705427 3.21769338,18.9444359 C3.4081702,18.7817369 3.89983245,18.3607175 5.18289205,17.2570282 C6.37119669,20.8306981 7.58125629,24.7278631 8.7526404,28.502766 C9.97140199,32.4299019 11.2317397,36.4911932 12.4679053,40.1852223 C12.6153556,40.6276495 13.0117795,40.8793097 13.5024748,40.8793097 C13.6663623,40.8793097 13.840402,40.8517175 14.0192762,40.7932029 C14.6632232,40.584834 15.1930775,40.0087272 14.9595742,39.310834 C13.6798987,35.483601 12.4306801,31.1896786 11.2225543,27.0370476 C10.0318325,22.9443583 8.80098477,18.7146592 7.5382298,14.9226301 C10.4809517,12.2181155 12.685455,10.1406107 14.8856073,7.99793107 C15.4294815,7.46844563 15.3298921,6.6111835 14.9001106,6.17351359" id="Fill-1"></path>
                <path d="M23.1078245,6.02970097 C23.0831689,5.41601165 22.8037384,4.94408932 22.3212616,4.70146796 C21.8286325,4.45361359 21.1900033,4.48834175 20.7326656,4.78709903 C20.3908709,5.01021553 20.2105464,5.35083689 20.2381026,5.72142913 C20.8109834,13.3858854 21.0788113,21.9175942 21.3379371,30.1681476 C21.4196391,32.7789437 21.4998907,35.3431184 21.5883609,37.8145262 C21.6275199,38.9110796 21.7256589,39.6879437 21.8789106,40.123235 C22.0529503,40.6170408 22.5122219,40.8824971 23.1808245,40.8824971 C23.2480232,40.8824971 23.3176391,40.8801184 23.3882219,40.8744097 C23.7295331,40.8491961 24.5233477,40.6627107 24.5228642,39.4852835 C24.5185132,32.4468854 24.0940497,24.7890893 23.6831225,17.3829534 C23.4636391,13.4258466 23.2567252,9.68852621 23.1078245,6.02970097" id="Fill-3"></path>
                <path d="M42.7505291,1.53797087 C40.3531318,1.53797087 37.9571848,1.52940777 35.5612377,1.52036893 C33.1648073,1.51180583 30.7678934,1.50324272 28.3700126,1.50324272 C27.8483768,1.50324272 27.4384166,1.7158932 27.2160325,2.10123301 C26.9559397,2.55269903 26.9883305,3.19635922 27.2953172,3.70300971 C27.542357,4.10975728 27.9199265,4.34238835 28.3308536,4.32859223 C29.6496881,4.29909709 31.8150325,4.33049515 32.5880589,4.34286408 C32.9627278,15.0586408 33.4843636,39.4734854 33.489198,39.7146796 C33.489198,40.457767 34.1529662,40.8459612 34.8085159,40.8459612 C35.1648139,40.8459612 35.4988735,40.7346408 35.7497808,40.5324563 C36.0470987,40.2922136 36.2042179,39.9496893 36.2042179,39.5410388 C36.2042179,30.9436796 35.8334166,21.5965728 35.4747013,12.5567864 C35.3639927,9.7585534 35.254251,7.00075728 35.1585291,4.32002913 C36.3178272,4.31479612 40.4406351,4.30195146 42.6963834,4.36332039 C43.0990921,4.37331068 43.4694099,4.15304854 43.7125821,3.75581553 C44.027304,3.24202913 44.0625954,2.56173786 43.7986351,2.10266019 C43.589304,1.73825243 43.2175358,1.53797087 42.7505291,1.53797087" id="Fill-5"></path>
                <path d="M63.4961139,0.993452427 L63.495147,0.993452427 L47.6265907,1.00249126 C47.2354848,1.00249126 46.8956238,1.20134563 46.6925775,1.5472 C46.4353854,1.98582136 46.4310344,2.59047184 46.6814583,3.01672427 C46.8762861,3.3483068 47.1953589,3.53098641 47.5796967,3.53098641 L47.5806636,3.53098641 L52.5306437,3.52813204 C52.6205642,7.19123883 52.6312,11.3871612 52.6428026,15.827132 C52.6635907,24.2437146 52.6853457,32.9462097 53.2355046,39.7652971 C53.2920675,40.4641417 54.0360874,40.8461515 54.7772066,40.8461515 C54.8323192,40.8461515 54.8879152,40.8437728 54.9435113,40.8394913 C55.6899483,40.7814524 56.1598556,40.3485398 56.1129616,39.7633942 C55.520743,32.4324233 55.3897298,22.5867534 55.2746702,13.8999573 C55.2253589,10.1750058 55.1784649,6.65414175 55.100147,3.52670485 L63.4492199,3.52194757 C64.191306,3.52147184 64.5790278,2.86829709 64.5785444,2.22320971 C64.5780609,1.51056893 64.122657,0.993452427 63.4961139,0.993452427" id="Fill-7"></path>
                <path d="M78.061306,3.86128447 C77.8229682,3.88078932 77.3806172,4.00733301 77.0958689,4.63672136 L76.8372265,5.20949806 C75.583657,7.98346893 74.5790609,10.2065466 73.3250079,13.2345563 C72.1231669,11.2612359 68.1642464,4.58629417 68.1173523,4.50637184 C67.797796,3.99068252 67.1233921,3.85795437 66.5490609,4.1981 C65.9756967,4.53729417 65.603445,5.3065466 66.1391007,6.19330388 C66.6244781,6.99680874 67.1282265,7.87452718 67.6150543,8.72275049 C68.210657,9.76078932 68.8265642,10.8345078 69.429902,11.8097505 C69.9249483,12.6099252 71.237498,15.0675369 71.4511801,15.4690515 C71.5145113,16.4433427 72.2817364,28.4754592 72.2817364,39.6693427 C72.2817364,40.3929252 72.6626901,40.7088087 72.8903921,40.8324981 C73.0736172,40.9328767 73.2897166,40.9818767 73.5130675,40.9818767 C73.7978159,40.9818767 74.0946503,40.9019544 74.3499086,40.7449641 C74.754551,40.4961583 74.973551,40.1151 74.951796,39.6993136 C74.6549616,34.0857214 74.6607629,31.4639835 74.6655974,28.9283524 C74.6709152,26.3789252 74.6762331,23.7433913 74.3827828,18.0955466 C74.6462596,17.3462748 77.5580411,9.10809029 79.3545179,5.76229417 C79.5604649,5.37838155 79.5203391,4.90645922 79.2467099,4.49923592 C78.9629285,4.07631359 78.4964053,3.82893495 78.061306,3.86128447" id="Fill-9"></path>
                <path d="M86.7939914,19.3807738 L86.6692629,19.1700262 C85.4998126,17.1881427 84.044647,14.721968 83.9827662,11.2662786 C83.9179848,7.68499709 86.9467596,4.76783204 87.7661967,4.30447282 C88.8041503,3.7179 88.9370974,3.06853107 88.7350179,2.69080291 C88.5029649,2.25693883 87.7410576,1.98149223 86.3584086,2.63514272 C83.4480775,4.00904563 80.4787662,7.66073495 81.6883424,13.4289388 C82.2921636,16.305667 83.3823291,18.384599 84.4372033,20.3950262 C84.6276801,20.7580068 84.8176735,21.1209874 85.0062166,21.489201 C85.1019384,21.6771136 85.208296,21.8831039 85.3223887,22.1038417 C86.2873424,23.9725019 87.7458921,26.7964243 88.1906603,28.8772592 C88.7664417,31.5698806 88.0528788,35.7034825 86.8026934,36.9194437 C86.5203623,37.1939388 86.2365808,37.2947932 85.9373291,37.2300942 C85.0144351,37.0264825 84.0973424,37.4651039 83.705753,38.2938223 C83.3393026,39.0711621 83.5568523,39.913201 84.2602629,40.4403078 C84.7398391,40.7999583 85.2764616,40.9816864 85.8324219,40.9816864 C86.2104748,40.9816864 86.5977132,40.8974825 86.982051,40.7276476 C89.0275013,39.8228126 90.585157,36.8242981 90.8573358,33.2658515 C91.1633556,29.2806767 89.7207596,24.3497544 86.7939914,19.3807738" id="Fill-11"></path>
            </g>
        </g>
    </g>
</svg>