<?xml version="1.0" encoding="UTF-8"?>
<svg width="147px" height="49px" viewBox="0 0 147 49" version="1.1" xmlns="http://www.w3.org/2000/svg" xmlns:xlink="http://www.w3.org/1999/xlink">
    <!-- Generator: Sketch 50.2 (55047) - http://www.bohemiancoding.com/sketch -->
    <title>formfield transition copy 17</title>
    <desc>Created with Sketch.</desc>
    <defs></defs>
    <g id="formfield-transition-copy-17" stroke="none" stroke-width="1" fill="none" fill-rule="evenodd">
        <g id="Group-Copy-2">
            <path d="M69.9001106,9.17351359 C69.5181901,8.78436796 68.8234815,8.63451359 68.019998,9.38045534 C65.7405609,11.495067 61.5167132,15.110601 59.2479119,17.052999 C58.7949252,17.4407175 58.4091371,17.7708728 58.1171371,18.022533 C58.0658921,16.5178049 58.014647,15.0639796 57.963402,13.6096786 C57.9053887,11.9774553 57.8478589,10.3438049 57.7903291,8.63784369 C57.7767927,8.24584369 57.5558589,7.90902816 57.1836073,7.71350388 C56.7228854,7.47088252 56.1108457,7.47992136 55.6950841,7.73443592 C55.3769781,7.92948447 55.2082563,8.24156214 55.2208258,8.61215437 C55.3455543,12.2952417 55.4997728,18.2142515 55.6486735,23.9382126 C56.0842563,40.6105816 56.1819119,43.0396495 56.3143755,43.2589602 C56.6295808,43.7779796 57.3707,43.8926301 57.907806,43.7375427 C58.4366934,43.584834 58.7552828,43.1971155 58.7398126,42.7256689 C58.6363556,39.6772029 58.5551371,35.9103874 58.4763358,32.2677369 C58.3989848,28.6793194 58.3187331,24.9705427 58.2176934,21.9444359 C58.4081702,21.7817369 58.8998325,21.3607175 60.1828921,20.2570282 C61.3711967,23.8306981 62.5812563,27.7278631 63.7526404,31.502766 C64.971402,35.4299019 66.2317397,39.4911932 67.4679053,43.1852223 C67.6153556,43.6276495 68.0117795,43.8793097 68.5024748,43.8793097 C68.6663623,43.8793097 68.840402,43.8517175 69.0192762,43.7932029 C69.6632232,43.584834 70.1930775,43.0087272 69.9595742,42.310834 C68.6798987,38.483601 67.4306801,34.1896786 66.2225543,30.0370476 C65.0318325,25.9443583 63.8009848,21.7146592 62.5382298,17.9226301 C65.4809517,15.2181155 67.685455,13.1406107 69.8856073,10.9979311 C70.4294815,10.4684456 70.3298921,9.6111835 69.9001106,9.17351359" id="Fill-1" stroke="#231F20" stroke-width="0.5" fill="#231F20"></path>
            <path d="M78.1078245,9.02970097 C78.0831689,8.41601165 77.8037384,7.94408932 77.3212616,7.70146796 C76.8286325,7.45361359 76.1900033,7.48834175 75.7326656,7.78709903 C75.3908709,8.01021553 75.2105464,8.35083689 75.2381026,8.72142913 C75.8109834,16.3858854 76.0788113,24.9175942 76.3379371,33.1681476 C76.4196391,35.7789437 76.4998907,38.3431184 76.5883609,40.8145262 C76.6275199,41.9110796 76.7256589,42.6879437 76.8789106,43.123235 C77.0529503,43.6170408 77.5122219,43.8824971 78.1808245,43.8824971 C78.2480232,43.8824971 78.3176391,43.8801184 78.3882219,43.8744097 C78.7295331,43.8491961 79.5233477,43.6627107 79.5228642,42.4852835 C79.5185132,35.4468854 79.0940497,27.7890893 78.6831225,20.3829534 C78.4636391,16.4258466 78.2567252,12.6885262 78.1078245,9.02970097" id="Fill-3" stroke="#231F20" stroke-width="0.5" fill="#231F20"></path>
            <path d="M97.7505291,4.53797087 C95.3531318,4.53797087 92.9571848,4.52940777 90.5612377,4.52036893 C88.1648073,4.51180583 85.7678934,4.50324272 83.3700126,4.50324272 C82.8483768,4.50324272 82.4384166,4.7158932 82.2160325,5.10123301 C81.9559397,5.55269903 81.9883305,6.19635922 82.2953172,6.70300971 C82.542357,7.10975728 82.9199265,7.34238835 83.3308536,7.32859223 C84.6496881,7.29909709 86.8150325,7.33049515 87.5880589,7.34286408 C87.9627278,18.0586408 88.4843636,42.4734854 88.489198,42.7146796 C88.489198,43.457767 89.1529662,43.8459612 89.8085159,43.8459612 C90.1648139,43.8459612 90.4988735,43.7346408 90.7497808,43.5324563 C91.0470987,43.2922136 91.2042179,42.9496893 91.2042179,42.5410388 C91.2042179,33.9436796 90.8334166,24.5965728 90.4747013,15.5567864 C90.3639927,12.7585534 90.254251,10.0007573 90.1585291,7.32002913 C91.3178272,7.31479612 95.4406351,7.30195146 97.6963834,7.36332039 C98.0990921,7.37331068 98.4694099,7.15304854 98.7125821,6.75581553 C99.027304,6.24202913 99.0625954,5.56173786 98.7986351,5.10266019 C98.589304,4.73825243 98.2175358,4.53797087 97.7505291,4.53797087" id="Fill-5" stroke="#231F20" stroke-width="0.5" fill="#231F20"></path>
            <path d="M118.496114,3.99345243 L118.495147,3.99345243 L102.626591,4.00249126 C102.235485,4.00249126 101.895624,4.20134563 101.692577,4.5472 C101.435385,4.98582136 101.431034,5.59047184 101.681458,6.01672427 C101.876286,6.3483068 102.195359,6.53098641 102.579697,6.53098641 L102.580664,6.53098641 L107.530644,6.52813204 C107.620564,10.1912388 107.6312,14.3871612 107.642803,18.827132 C107.663591,27.2437146 107.685346,35.9462097 108.235505,42.7652971 C108.292068,43.4641417 109.036087,43.8461515 109.777207,43.8461515 C109.832319,43.8461515 109.887915,43.8437728 109.943511,43.8394913 C110.689948,43.7814524 111.159856,43.3485398 111.112962,42.7633942 C110.520743,35.4324233 110.38973,25.5867534 110.27467,16.8999573 C110.225359,13.1750058 110.178465,9.65414175 110.100147,6.52670485 L118.44922,6.52194757 C119.191306,6.52147184 119.579028,5.86829709 119.578544,5.22320971 C119.578061,4.51056893 119.122657,3.99345243 118.496114,3.99345243" id="Fill-7" stroke="#231F20" stroke-width="0.5" fill="#231F20"></path>
            <path d="M133.061306,6.86128447 C132.822968,6.88078932 132.380617,7.00733301 132.095869,7.63672136 L131.837226,8.20949806 C130.583657,10.9834689 129.579061,13.2065466 128.325008,16.2345563 C127.123167,14.2612359 123.164246,7.58629417 123.117352,7.50637184 C122.797796,6.99068252 122.123392,6.85795437 121.549061,7.1981 C120.975697,7.53729417 120.603445,8.3065466 121.139101,9.19330388 C121.624478,9.99680874 122.128226,10.8745272 122.615054,11.7227505 C123.210657,12.7607893 123.826564,13.8345078 124.429902,14.8097505 C124.924948,15.6099252 126.237498,18.0675369 126.45118,18.4690515 C126.514511,19.4433427 127.281736,31.4754592 127.281736,42.6693427 C127.281736,43.3929252 127.66269,43.7088087 127.890392,43.8324981 C128.073617,43.9328767 128.289717,43.9818767 128.513068,43.9818767 C128.797816,43.9818767 129.09465,43.9019544 129.349909,43.7449641 C129.754551,43.4961583 129.973551,43.1151 129.951796,42.6993136 C129.654962,37.0857214 129.660763,34.4639835 129.665597,31.9283524 C129.670915,29.3789252 129.676233,26.7433913 129.382783,21.0955466 C129.64626,20.3462748 132.558041,12.1080903 134.354518,8.76229417 C134.560465,8.37838155 134.520339,7.90645922 134.24671,7.49923592 C133.962928,7.07631359 133.496405,6.82893495 133.061306,6.86128447" id="Fill-9" stroke="#231F20" stroke-width="0.5" fill="#231F20"></path>
            <path d="M141.793991,22.3807738 L141.669263,22.1700262 C140.499813,20.1881427 139.044647,17.721968 138.982766,14.2662786 C138.917985,10.6849971 141.94676,7.76783204 142.766197,7.30447282 C143.80415,6.7179 143.937097,6.06853107 143.735018,5.69080291 C143.502965,5.25693883 142.741058,4.98149223 141.358409,5.63514272 C138.448077,7.00904563 135.478766,10.660735 136.688342,16.4289388 C137.292164,19.305667 138.382329,21.384599 139.437203,23.3950262 C139.62768,23.7580068 139.817674,24.1209874 140.006217,24.489201 C140.101938,24.6771136 140.208296,24.8831039 140.322389,25.1038417 C141.287342,26.9725019 142.745892,29.7964243 143.19066,31.8772592 C143.766442,34.5698806 143.052879,38.7034825 141.802693,39.9194437 C141.520362,40.1939388 141.236581,40.2947932 140.937329,40.2300942 C140.014435,40.0264825 139.097342,40.4651039 138.705753,41.2938223 C138.339303,42.0711621 138.556852,42.913201 139.260263,43.4403078 C139.739839,43.7999583 140.276462,43.9816864 140.832422,43.9816864 C141.210475,43.9816864 141.597713,43.8974825 141.982051,43.7276476 C144.027501,42.8228126 145.585157,39.8242981 145.857336,36.2658515 C146.163356,32.2806767 144.72076,27.3497544 141.793991,22.3807738" id="Fill-11" stroke="#231F20" stroke-width="0.5" fill="#231F20"></path>
            <path d="M26.5691477,36.9708806 C26.5691477,36.9708806 26.0412272,32.7735311 29.0158563,33.0456476 C31.9904854,33.3177641 36.2912007,34.9813854 36.0775185,36.3429194 C35.8638364,37.7044534 32.0610682,39.9736767 29.4891477,39.0207932 C26.9167437,38.067434 25.8062735,38.279133 26.5691477,36.9708806" id="Fill-13" fill="#FF6864"></path>
            <path d="M33.984594,32.9722427 C33.984594,32.9722427 31.5093623,29.6264466 31.7041901,25.7682913 C31.8990179,21.9106117 34.7842099,22.8240097 35.753998,25.3106408 C36.7242695,27.7967961 34.3563623,30.8347961 33.8946735,31.5198447 C33.4334682,32.2053689 33.984594,32.9722427 33.984594,32.9722427" id="Fill-15" fill="#FFE861"></path>
            <path d="M22.5141669,32.2407631 C22.5141669,32.2407631 14.6495046,30.9239476 12.0949881,29.1884913 C9.54095497,27.453035 12.1138424,22.1862485 17.3045775,23.2038311 C22.4953126,24.2214136 27.8388159,33.3839379 22.5141669,32.2407631" id="Fill-17" fill="#61A9FF"></path>
            <path d="M27.5855881,35.4035942 C27.5817205,35.1628757 27.5681841,34.9007495 27.538694,34.6157883 C27.3491841,32.7461767 25.9708861,30.1134971 23.4521444,27.9389437 C22.9169722,26.7872058 21.1180781,25.6778078 17.6575881,24.3157981 C12.1632503,22.1540893 5.90458808,25.9746621 2.52096556,30.8946427 C2.37689934,30.5649631 2.28746225,30.2119728 2.25507152,29.8447107 C1.80885298,24.7325359 1.56664768,17.3506621 2.9449457,11.2132932 C4.02979338,6.38322524 4.65633642,5.44604078 4.90724371,5.32330291 C5.1924755,5.32615728 6.04768742,6.05544854 6.6713298,6.58778835 C6.78445563,6.68388544 6.90338278,6.78473981 7.02182649,6.88511845 L7.02134305,6.88559417 C7.02327682,6.88702136 7.03004503,6.8927301 7.04164768,6.90176893 C7.3515351,7.1648466 7.6855947,7.43886602 8.04479338,7.72049709 C9.83063444,9.17527379 13.6213166,12.2556136 16.7163232,14.7156039 C19.1461113,16.6470602 23.0267139,20.8139631 28.2508066,27.100235 C28.4973629,27.3966136 28.6699523,27.6045068 28.7555219,27.7034583 C29.0417205,28.036468 29.342906,28.1263806 29.5865616,28.1263806 C29.8215152,28.1263806 30.0023232,28.0421767 30.0608199,28.0107786 C30.832396,27.6011767 30.6602901,27.0317301 30.0927272,25.1473709 C29.604449,23.5289437 28.8667139,21.0822738 28.7260318,19.2136136 C28.5258861,16.5547689 32.1667007,7.15342913 35.2109457,3.34855534 C36.1270715,2.63258447 36.9769656,2.17398252 37.5097205,1.97845825 C37.1978993,3.79431262 35.8805152,8.92979806 34.9701907,12.4768272 C34.5394424,14.1585262 34.1415682,15.7103515 33.8563364,16.8687495 C32.9846874,20.4138757 33.2534821,21.1717107 34.3180252,23.2530214 C34.4495219,23.510866 34.5979391,23.7986816 34.7579589,24.1264583 C32.9634159,24.2981961 31.6634358,26.468468 31.2002967,27.2424777 C30.9286013,27.6953709 30.7913033,28.1339922 30.785502,28.5531087 C30.5365285,29.9769631 31.5875351,31.5782641 33.7736675,34.2352058 C34.2648464,34.8322447 34.469343,35.3545942 34.3803894,35.7875068 C34.3291444,36.0344097 34.1831444,36.2413515 34.0274755,36.4045262 C33.8268464,36.2884485 33.6300848,36.1971087 33.4782834,36.1276524 C31.9568861,35.4321379 29.372396,35.087235 27.5855881,35.4035942 M12.0409391,26.3790311 C12.1371444,26.1930214 12.5688596,25.9651476 13.5488,25.9651476 C14.1332834,25.9651476 14.9125947,26.0460214 15.9312106,26.2658078 C18.126045,26.739633 19.9408927,27.6468466 21.3844556,28.722468 C21.3109722,28.7272252 21.2360384,28.7334097 21.1606212,28.7414971 C20.4799325,28.8104777 19.7484821,29.0516718 18.9740053,29.3076136 C17.1412702,29.9117883 15.2476212,30.5364194 13.6764291,29.1648951 C12.2932967,27.9574971 11.8378927,26.7710311 12.0409391,26.3790311 M10.6752106,31.7561864 C9.14414437,32.2166913 7.67689272,32.5872835 6.3140649,32.8574971 C5.40519073,33.0387495 4.46972715,32.8370408 3.7203894,32.3299146 C3.84366755,32.2604583 3.95244238,32.1619825 4.03656159,32.0378175 C5.55457483,29.7976136 7.72185298,27.7971767 10.0955616,26.6321184 C10.1144159,27.8423709 10.9377205,29.2814485 12.411257,30.5678175 C12.6611974,30.785701 12.9150053,30.9636233 13.1717139,31.1206136 C12.2845947,31.3199437 11.4298662,31.5283126 10.6752106,31.7561864 M25.9486477,13.4363709 C27.0861907,12.1614194 28.4905947,10.587235 29.8161974,9.10058447 C28.0782172,12.9330505 26.6607603,17.1570408 26.826098,19.3515748 C26.920853,20.6132058 27.2447603,22.0570408 27.5986411,23.3767107 C25.3864026,20.7735262 22.2353166,17.1874874 19.5918464,14.7198854 C21.7412371,15.7231961 24.3648861,15.2122641 25.9486477,13.4363709 M35.9796212,26.9679825 C36.2895086,27.801934 36.5268795,28.5573903 36.6956013,29.1986718 C36.7081709,29.2838272 36.7188066,29.3675553 36.7265417,29.450332 C36.7405616,29.5844874 36.7821377,29.7086524 36.8454689,29.8190214 C36.9160517,30.1401379 36.9639126,30.419866 36.9914689,30.6520214 C36.2803232,30.2233903 35.4478331,29.9122641 34.6994623,29.6325359 C34.0134556,29.3761184 32.889449,28.9531961 32.7158927,28.6377883 C32.7279788,28.5659534 32.7337801,28.4950699 32.7294291,28.4241864 C32.7526344,28.3609146 32.7864755,28.286701 32.8411046,28.1948854 C33.8205616,26.5598078 34.5969722,25.994167 35.0040318,25.994167 C35.0320715,25.994167 35.0591444,25.9970214 35.0842834,26.0027301 C35.3878861,26.0683806 35.7045417,26.4461087 35.9796212,26.9679825 M48.6178066,39.6761087 C51.1326808,38.7141864 52.0792636,37.841701 51.6876742,36.8469534 C51.2936675,35.8469728 49.9758,35.8346039 47.4174159,36.8060408 C45.3187868,37.6038369 43.3216808,38.2988757 41.5619457,38.8645165 C40.7439589,38.9244583 39.9177536,38.9763126 39.1210384,39.0224583 C40.4002305,38.3060117 42.1140384,37.3926136 44.4094291,36.2308854 C47.4000119,34.7180699 48.2987338,33.8413029 47.8438132,32.880332 C47.4101642,31.9631282 46.261502,32.0278272 43.6059457,33.1220019 C41.6436477,33.9312155 38.5172172,35.6000699 35.8993695,37.0553223 C36.0477868,36.8012835 36.1715483,36.5139437 36.2421311,36.1866427 C36.4616146,35.1714388 36.1294887,34.117701 35.2549391,33.0544485 C34.8928397,32.6148757 34.3779722,31.987866 33.9012967,31.3399243 C33.941906,31.3551476 33.9815483,31.3703709 34.0221576,31.3855942 C34.8372437,31.6900602 35.6794026,32.0049922 36.2518,32.4198272 C37.299906,33.1786136 37.995098,32.8703417 38.3161046,32.6186816 C38.686906,32.3284874 39.2626874,31.410332 38.5210848,28.591167 C38.3920053,27.9256233 38.1507669,27.0645553 37.7611113,26.2762738 C37.5585483,25.7448854 37.3226278,25.1702058 37.0489987,24.5484291 C36.6506411,23.6402641 36.3011113,22.9580699 36.019747,22.4100311 C35.1239258,20.6588757 34.9624556,20.343468 35.7088927,17.3097495 C35.9921907,16.1565845 36.389098,14.6099922 36.8188795,12.9354291 C38.3789523,6.85086602 39.4836212,2.4641767 39.4836212,1.42185631 C39.4836212,0.800079612 39.1481113,0.30532233 38.5858662,0.0974291262 C36.9682636,-0.500561165 33.8031576,1.77674951 32.1381775,3.64921553 C30.6897801,5.27810874 26.976449,9.44215728 24.5166874,12.1994777 C23.4279722,13.4192447 21.6600185,13.721332 20.2159722,12.9325748 C17.0750384,11.2166233 12.7641709,8.77375922 10.0641377,6.87655534 C9.77987285,6.67627379 9.5149457,6.47504078 9.25920397,6.27475922 C8.72693245,5.84137087 8.37450199,5.55355534 8.27249536,5.47030291 C8.15308477,5.36897282 8.03367417,5.26764272 7.91958146,5.1710699 C6.59252848,4.03788544 5.54345563,3.14304078 4.33001192,3.5388466 C2.99715762,3.97271068 2.23815099,5.67106019 1.08417086,10.8089243 C-0.346339073,17.1770214 -0.101716556,24.7625068 0.356588079,30.0055068 C0.454727152,31.1310796 0.905296689,32.1724485 1.65898543,33.0173417 C2.67808477,34.1590893 4.14485298,34.7979922 5.65416424,34.7979922 C5.9988596,34.7979922 6.34597219,34.7642155 6.69066755,34.6961864 C8.11440927,34.4136039 9.64257483,34.0277883 11.2326212,33.5487301 C12.4968265,33.1681476 14.1100781,32.8299049 15.6706344,32.5026039 C18.4451179,31.9203126 20.8429987,31.4146136 22.2623894,30.6030214 C23.0750583,30.6810408 23.6203828,30.9645748 23.8500185,31.1087204 C24.9571046,32.5083126 25.5493232,33.8864971 25.6426278,34.8022738 C25.7306146,35.6652447 25.6445616,36.2599049 25.5821974,36.6937689 C25.5067801,37.2194485 25.4284623,37.7627301 25.8369722,38.2394097 C26.276906,38.7522447 26.9498596,38.8069534 28.0047338,38.8369243 C28.3383099,38.8464388 28.7255483,38.8621379 29.1398596,38.8787883 C29.6469921,38.8992447 30.1091642,38.9158951 30.5365285,38.9287398 C30.8797735,39.1922932 31.1712901,39.435866 31.3772371,39.6328175 C31.3221245,39.665167 31.2800649,39.6903806 31.2621775,39.7003709 C31.1838596,39.7460408 31.1176278,39.8031282 31.0586477,39.8649728 C30.9111974,39.9282447 30.7434424,39.9962738 30.5573166,40.0690602 C29.5884954,39.9001767 25.3873695,39.1675553 21.1867272,38.4392155 C18.7912636,38.0239049 16.3953166,37.6100214 14.5978728,37.3022252 C13.6972172,37.1480893 12.947396,37.0210699 12.4214093,36.9340117 C12.1743695,36.893099 11.9403828,36.8540893 11.7262172,36.833633 C11.7112305,36.8307786 11.6972106,36.8279243 11.6822238,36.8245942 L11.6807735,36.8298272 C11.0726013,36.7794 10.6321841,36.8911961 10.5011709,37.5510311 C10.4392901,37.8650117 10.5316278,38.5029631 11.3230252,38.6670893 C14.2435086,39.2741184 17.8190583,40.0176816 20.3566543,40.6527786 C19.2843762,40.8535359 18.0501444,41.0942544 16.6293033,41.3768369 C14.5388927,41.7921476 12.5649921,42.1841476 11.7953497,42.2521767 C11.2708132,42.2992738 10.8845417,42.7554971 10.9314358,43.2707107 C10.9788132,43.7864 11.4438861,44.1631767 11.9660053,44.1203612 C15.794396,43.7802155 18.5239192,43.5085748 20.4678464,43.252633 C18.9242106,43.8939146 16.9425748,44.6850505 14.4015947,45.6593417 C13.1746146,46.1293612 12.3213364,46.4609437 11.7755285,46.6778757 C10.929502,47.0146913 10.1298861,47.3324777 10.4663629,48.2087689 C10.6355682,48.6511961 10.9193497,48.8010505 11.2751642,48.8010505 C11.6217934,48.8005748 12.0365881,48.658332 12.4818397,48.506099 C12.9899391,48.3315068 13.7049523,48.0798466 14.5388927,47.783468 C16.1990384,47.193565 18.3295748,46.4266913 20.2232238,45.7449728 C21.3187073,45.3505942 22.3344225,44.985235 23.133555,44.6993223 C24.9527536,44.0475748 26.4552967,43.5237981 27.6909788,43.0932641 C28.9725881,42.6465553 29.9796013,42.2945165 30.7777669,41.9933806 C30.7835682,42.0228757 30.7864689,42.0523709 30.7956543,42.0813903 C30.8000053,42.0947107 31.2094821,43.5076233 30.5365285,43.8525262 C30.4234026,43.8986718 29.9631642,44.0195068 28.1425152,44.1393903 L27.9921642,44.1493806 C27.4676278,44.1860117 27.0721709,44.6346233 27.109396,45.1512641 C27.1451709,45.6450699 27.5633497,46.0223223 28.0588795,46.0223223 C28.0816013,46.0223223 28.1043232,46.0213709 28.127045,46.0199437 L28.2701444,46.0104291 C30.0714556,45.8919728 30.948906,45.7554388 31.4004424,45.5237592 C31.6479656,45.3972155 31.8524623,45.2430796 32.0274689,45.0727689 C32.515747,45.4100602 33.2109391,45.7340311 34.2053828,45.9538175 C34.2759656,45.9690408 34.3455815,45.9766524 34.4147139,45.9766524 C34.8507801,45.9766524 35.2447868,45.6807495 35.3438927,45.2440311 C35.4589523,44.7392835 35.1360119,44.2373903 34.6225947,44.124167 C33.4502437,43.8653709 32.984204,43.466235 32.8174159,43.2697592 C32.8411046,42.9938369 32.8353033,42.718866 32.8087139,42.4591184 C35.4086742,43.1218078 40.5384954,44.407701 43.5754887,45.027099 C44.4050781,45.1964583 45.2627073,45.2759049 46.0724755,45.2759049 C47.8152901,45.2759049 49.3381377,44.9062641 49.8907139,44.2573709 C50.1918993,43.9029534 50.2726344,43.4476816 50.1063298,43.0380796 C49.821098,42.3378078 48.979906,41.9714971 47.2022834,41.7740699 C44.7928,41.5067107 42.6869192,41.2636136 40.8894755,41.0457301 C41.2303033,40.9410699 41.5793497,40.8316524 41.9361311,40.7179534 C44.6458331,40.5133903 47.2167868,40.2122544 48.6178066,39.6761087" id="Fill-19" fill="#231F20"></path>
        </g>
    </g>
</svg>