<svg xmlns="http://www.w3.org/2000/svg" width="147" height="49" viewBox="0 0 147 49">
    <g fill="none" fill-rule="evenodd">
        <path fill="#231F20" stroke="#231F20" stroke-width=".5" d="M69.9 9.174c-.382-.39-1.077-.54-1.88.206-2.28 2.115-6.503 5.73-8.772 7.673-.453.388-.839.718-1.13.97l-.155-4.413a2705.8 2705.8 0 0 1-.173-4.972c-.013-.392-.234-.729-.606-.924-.461-.243-1.073-.234-1.489.02a.956.956 0 0 0-.474.878c.125 3.683.279 9.602.428 15.326.435 16.673.533 19.102.665 19.321.316.519 1.057.634 1.594.479.529-.153.847-.54.832-1.012-.104-3.049-.185-6.816-.264-10.458a939.676 939.676 0 0 0-.258-10.324c.19-.162.682-.583 1.965-1.687 1.188 3.574 2.398 7.47 3.57 11.246 1.218 3.927 2.479 7.988 3.715 11.682.147.443.544.694 1.034.694.164 0 .338-.027.517-.086.644-.208 1.174-.784.94-1.482-1.28-3.827-2.528-8.121-3.736-12.274-1.191-4.093-2.422-8.322-3.685-12.114a336.72 336.72 0 0 0 7.348-6.925c.543-.53.444-1.387.014-1.824M78.108 9.03c-.025-.614-.304-1.086-.787-1.329a1.643 1.643 0 0 0-1.588.086c-.342.223-.522.564-.495.934.573 7.665.84 16.197 1.1 24.447.082 2.61.162 5.175.25 7.647.04 1.096.138 1.873.29 2.308.175.494.634.76 1.303.76.067 0 .137-.003.207-.009.342-.025 1.135-.211 1.135-1.389-.004-7.038-.429-14.696-.84-22.102-.22-3.957-.426-7.694-.575-11.353M97.75 4.538c-2.397 0-4.793-.009-7.189-.018-2.396-.008-4.793-.017-7.191-.017-.522 0-.932.213-1.154.598-.26.452-.228 1.095.08 1.602.246.407.624.64 1.035.626 1.319-.03 3.484.001 4.257.014.375 10.716.896 35.13.901 35.372 0 .743.664 1.131 1.32 1.131.356 0 .69-.111.94-.314.298-.24.455-.582.455-.991 0-8.597-.37-17.944-.73-26.984-.11-2.798-.22-5.556-.315-8.237 1.159-.005 5.282-.018 7.537.043.403.01.773-.21 1.017-.607.314-.514.35-1.194.086-1.653-.21-.365-.581-.565-1.048-.565M118.496 3.993l-15.87.01c-.39 0-.73.198-.933.544-.258.439-.262 1.043-.012 1.47.195.331.514.514.899.514l4.95-.003c.09 3.663.101 7.86.113 12.3.02 8.416.042 17.118.593 23.937.056.7.8 1.081 1.541 1.081.055 0 .11-.002.167-.007.746-.058 1.216-.49 1.169-1.076-.592-7.33-.723-17.176-.838-25.863-.05-3.725-.097-7.246-.175-10.373l8.35-.005c.741 0 1.129-.654 1.129-1.299 0-.712-.456-1.23-1.083-1.23M133.061 6.861c-.238.02-.68.146-.965.776l-.259.572c-1.253 2.774-2.258 4.998-3.512 8.026-1.202-1.974-5.16-8.649-5.208-8.729-.32-.515-.994-.648-1.568-.308-.573.34-.946 1.109-.41 1.995.485.804.99 1.682 1.476 2.53.596 1.038 1.212 2.112 1.815 3.087.495.8 1.807 3.258 2.021 3.66.064.973.83 13.005.83 24.2 0 .723.382 1.039.61 1.162.183.1.399.15.622.15.285 0 .582-.08.837-.237.405-.249.624-.63.602-1.046-.297-5.613-.291-8.235-.286-10.77.005-2.55.01-5.186-.283-10.833.263-.75 3.175-8.988 4.972-12.334.205-.384.165-.856-.108-1.263-.284-.423-.75-.67-1.186-.638M141.794 22.38l-.125-.21c-1.17-1.982-2.624-4.448-2.686-7.904-.065-3.581 2.964-6.498 3.783-6.962 1.038-.586 1.171-1.235.969-1.613-.232-.434-.994-.71-2.377-.056-2.91 1.374-5.88 5.026-4.67 10.794.604 2.877 1.694 4.956 2.75 6.966a122.753 122.753 0 0 1 .884 1.709c.965 1.869 2.424 4.692 2.869 6.773.575 2.693-.138 6.826-1.388 8.042-.283.275-.566.376-.866.311-.923-.204-1.84.235-2.231 1.064-.367.777-.15 1.62.554 2.146.48.36 1.016.542 1.572.542.378 0 .766-.085 1.15-.254 2.046-.905 3.603-3.904 3.875-7.462.306-3.985-1.136-8.916-4.063-13.885"/>
        <path fill="#FF6864" d="M26.57 36.97s-.529-4.196 2.446-3.924c2.974.272 7.275 1.935 7.062 3.297-.214 1.361-4.017 3.63-6.589 2.678-2.572-.954-3.683-.742-2.92-2.05"/>
        <path fill="#FFE861" d="M33.985 32.972s-2.476-3.346-2.28-7.204c.194-3.857 3.08-2.944 4.049-.457.97 2.486-1.398 5.524-1.86 6.209-.46.685.09 1.452.09 1.452"/>
        <path fill="#61A9FF" d="M22.514 32.24s-7.864-1.316-10.419-3.052c-2.554-1.735.019-7.002 5.21-5.984 5.19 1.017 10.534 10.18 5.21 9.037"/>
        <path fill="#231F20" d="M27.586 35.404a9.034 9.034 0 0 0-.047-.788c-.19-1.87-1.568-4.503-4.087-6.677-.535-1.152-2.334-2.261-5.794-3.623-5.495-2.162-11.753 1.659-15.137 6.579a3.35 3.35 0 0 1-.266-1.05c-.446-5.112-.688-12.494.69-18.632 1.085-4.83 1.711-5.767 1.962-5.89.285.003 1.14.732 1.764 1.265l.35.297.02.017c.31.263.645.537 1.004.818 1.786 1.455 5.576 4.536 8.671 6.996 2.43 1.931 6.31 6.098 11.535 12.384.246.297.419.505.505.603.286.333.587.423.83.423.236 0 .416-.084.475-.115.771-.41.6-.98.032-2.864-.489-1.618-1.226-4.065-1.367-5.933-.2-2.66 3.44-12.06 6.485-15.865.916-.716 1.766-1.175 2.299-1.37-.312 1.815-1.63 6.95-2.54 10.498-.43 1.682-.828 3.233-1.114 4.392-.871 3.545-.603 4.303.462 6.384.132.258.28.546.44.873-1.795.172-3.095 2.342-3.558 3.116-.271.453-.409.892-.414 1.311-.25 1.424.802 3.025 2.988 5.682.49.597.695 1.12.606 1.553-.05.246-.197.453-.353.617a6.381 6.381 0 0 0-.549-.277c-1.521-.696-4.106-1.04-5.892-.724M12.04 26.379c.096-.186.528-.414 1.508-.414.584 0 1.364.081 2.382.3a14.03 14.03 0 0 1 5.453 2.457c-.073.005-.148.011-.223.02-.681.068-1.413.31-2.187.566-1.833.604-3.726 1.228-5.298-.143-1.383-1.208-1.838-2.394-1.635-2.786m-1.366 5.377a47.03 47.03 0 0 1-4.36 1.101 3.438 3.438 0 0 1-2.595-.527.937.937 0 0 0 .317-.292c1.518-2.24 3.685-4.24 6.059-5.406.018 1.21.842 2.65 2.315 3.936.25.218.504.396.76.553-.886.199-1.741.407-2.496.635m15.274-18.32l3.867-4.335c-1.738 3.832-3.155 8.056-2.99 10.25.095 1.262.419 2.706.773 4.026-2.213-2.603-5.364-6.19-8.007-8.657 2.15 1.003 4.773.492 6.357-1.284m10.03 13.532c.31.834.548 1.59.717 2.23.012.086.023.17.03.252a.932.932 0 0 0 .12.369c.07.321.118.6.145.833-.71-.429-1.543-.74-2.292-1.02-.686-.256-1.81-.679-1.983-.994a.937.937 0 0 0 .013-.214c.024-.063.057-.137.112-.23.98-1.634 1.756-2.2 2.163-2.2.028 0 .055.003.08.009.304.065.62.443.896.965m12.638 12.708c2.515-.962 3.461-1.834 3.07-2.829-.394-1-1.712-1.012-4.27-.041a120.181 120.181 0 0 1-5.856 2.059c-.818.06-1.644.111-2.441.157 1.28-.716 2.993-1.63 5.288-2.791 2.991-1.513 3.89-2.39 3.435-3.35-.434-.918-1.582-.853-4.238.241-1.962.81-5.089 2.478-7.707 3.933.149-.254.273-.541.343-.868.22-1.016-.113-2.07-.987-3.133A40.33 40.33 0 0 1 33.9 31.34l.121.046c.815.304 1.657.619 2.23 1.034 1.048.759 1.743.45 2.064.199.37-.29.947-1.209.205-4.028-.129-.665-.37-1.526-.76-2.315a37.171 37.171 0 0 0-1.741-3.866c-.896-1.751-1.058-2.067-.311-5.1a490 490 0 0 1 1.11-4.375c1.56-6.084 2.665-10.47 2.665-11.513 0-.622-.336-1.117-.898-1.325-1.618-.598-4.783 1.68-6.448 3.552-1.448 1.63-5.162 5.793-7.621 8.55a3.493 3.493 0 0 1-4.301.734c-3.141-1.716-7.452-4.16-10.152-6.056-.284-.2-.55-.402-.805-.602l-.987-.805-.352-.299C6.593 4.038 5.543 3.143 4.33 3.54c-1.333.434-2.092 2.132-3.246 7.27-1.43 6.368-1.186 13.954-.727 19.197a5.167 5.167 0 0 0 1.302 3.011 5.366 5.366 0 0 0 5.032 1.68 48.822 48.822 0 0 0 4.542-1.148c1.264-.38 2.877-.72 4.438-1.046 2.774-.583 5.172-1.088 6.591-1.9.813.078 1.358.362 1.588.506 1.107 1.4 1.7 2.777 1.793 3.693.088.863.002 1.458-.06 1.892-.076.525-.155 1.069.254 1.545.44.513 1.113.568 2.168.598.333.01.72.025 1.135.042.507.02.97.037 1.397.05.343.263.634.507.84.704l-.115.067a.928.928 0 0 0-.203.165c-.148.063-.316.131-.502.204-.969-.169-5.17-.901-9.37-1.63-2.396-.415-4.792-.829-6.59-1.137-.9-.154-1.65-.28-2.176-.368-.247-.04-.48-.08-.695-.1a1.443 1.443 0 0 1-.044-.01l-.001.006c-.608-.05-1.049.061-1.18.721-.062.314.03.952.822 1.116 2.92.607 6.496 1.35 9.034 1.986-1.073.2-2.307.441-3.728.724-2.09.415-4.064.807-4.834.875a.943.943 0 0 0-.864 1.019.953.953 0 0 0 1.035.85c3.828-.34 6.558-.612 8.502-.868a240.164 240.164 0 0 1-6.066 2.406c-1.227.47-2.08.802-2.626 1.019-.846.337-1.646.654-1.31 1.53.17.443.453.593.81.593.346 0 .76-.143 1.206-.295.508-.174 1.223-.426 2.057-.723 1.66-.59 3.79-1.356 5.684-2.038 1.096-.394 2.111-.76 2.91-1.046a524.73 524.73 0 0 1 4.558-1.606c1.282-.446 2.289-.798 3.087-1.1.006.03.008.06.018.088.004.014.413 1.427-.26 1.772-.113.046-.573.167-2.393.286l-.15.01a.943.943 0 0 0-.884 1.002.947.947 0 0 0 1.018.869l.143-.01c1.801-.118 2.679-.255 3.13-.486.248-.127.452-.28.627-.451.489.337 1.184.661 2.178.88a.95.95 0 0 0 1.139-.71.938.938 0 0 0-.721-1.119c-1.173-.259-1.639-.658-1.806-.854.024-.276.018-.551-.008-.81 2.6.662 7.73 1.948 10.766 2.567.83.17 1.688.249 2.497.249 1.743 0 3.266-.37 3.819-1.019.3-.354.382-.81.215-1.219-.285-.7-1.126-1.067-2.904-1.264-2.41-.267-4.515-.51-6.313-.728.341-.105.69-.214 1.047-.328 2.71-.205 5.28-.506 6.682-1.042"/>
    </g>
</svg>
