<svg xmlns="http://www.w3.org/2000/svg" width="133" height="64" viewBox="0 0 133 64">
    <g fill="none" fill-rule="evenodd" stroke-width="2.4">
        <path stroke="#FF6864" d="M98.097 30.765c0 14.561-11.829 26.365-26.42 26.365-14.592 0-30.426-8.056-30.426-26.365C41.251 12.457 57.085 4.4 71.677 4.4c14.591 0 26.42 11.804 26.42 26.365z"/>
        <path stroke="#FFE861" d="M102.083 35.367c.553 14.55-8.326 17.965-22.907 18.516-14.58.552-29.343-1.969-29.895-16.52-.552-14.55 10.82-26.792 25.4-27.344 14.582-.551 26.85 10.798 27.402 25.348z"/>
        <path stroke="#61A9FF" d="M74.93 53.258c-13.772 4.81-19.655-2.653-24.475-16.397-4.82-13.744-6.751-28.564 7.021-33.374C71.25-1.323 86.321 5.92 91.141 19.663c4.82 13.744-2.438 28.785-16.21 33.595z"/>
        <path stroke="#61A9FF" d="M92.322 30s-1.23 18.648-9.961 24.376c-8.732 5.728-28.66 2.78-40.844 2.002-36.344-2.319-60.088 1.14-14.276 4.968 37.487 3.133 58.088-7.638 89.452-5.402 31.365 2.236 38.086 2.362 38.086 2.362"/>
    </g>
</svg>
