<svg xmlns="http://www.w3.org/2000/svg" width="93" height="42" viewBox="0 0 93 42">
    <g fill="#231F20" fill-rule="evenodd" stroke="#231F20" stroke-width=".5">
        <path d="M15.9 6.174c-.382-.39-1.077-.54-1.88.206-2.28 2.115-6.503 5.73-8.772 7.673-.453.388-.839.718-1.13.97l-.155-4.413c-.058-1.633-.115-3.266-.173-4.972-.013-.392-.234-.729-.606-.924-.461-.243-1.073-.234-1.489.02a.956.956 0 0 0-.474.878c.125 3.683.279 9.602.428 15.326.435 16.673.533 19.102.665 19.321.316.519 1.057.634 1.594.479.529-.153.847-.54.832-1.012-.104-3.049-.185-6.816-.264-10.458a939.675 939.675 0 0 0-.258-10.324c.19-.162.682-.583 1.965-1.687 1.188 3.574 2.398 7.47 3.57 11.246 1.218 3.927 2.479 7.988 3.715 11.682.147.443.544.694 1.034.694.164 0 .338-.027.517-.086.644-.208 1.174-.784.94-1.482-1.28-3.827-2.528-8.121-3.736-12.274-1.191-4.093-2.422-8.322-3.685-12.114a336.72 336.72 0 0 0 7.348-6.925c.543-.53.444-1.387.014-1.824M24.108 6.03c-.025-.614-.304-1.086-.787-1.329a1.643 1.643 0 0 0-1.588.086c-.342.223-.522.564-.495.934.573 7.665.84 16.197 1.1 24.447.082 2.61.162 5.175.25 7.647.04 1.096.138 1.873.29 2.308.175.494.634.76 1.303.76.067 0 .137-.003.207-.009.342-.025 1.135-.211 1.135-1.389-.004-7.038-.429-14.696-.84-22.102-.22-3.957-.426-7.694-.575-11.353M43.75 1.538c-2.397 0-4.793-.009-7.189-.018-2.396-.008-4.793-.017-7.191-.017-.522 0-.932.213-1.154.598-.26.452-.228 1.095.08 1.602.246.407.624.64 1.035.626 1.319-.03 3.484.001 4.257.014.375 10.716.896 35.13.901 35.372 0 .743.664 1.131 1.32 1.131.356 0 .69-.111.94-.314.298-.24.455-.582.455-.991 0-8.597-.37-17.944-.73-26.984-.11-2.798-.22-5.556-.315-8.237 1.159-.005 5.282-.018 7.537.043.403.01.773-.21 1.017-.607.314-.514.35-1.194.086-1.653-.21-.365-.581-.565-1.048-.565M64.496.993l-15.87.01c-.39 0-.73.198-.933.544-.258.439-.262 1.043-.012 1.47.195.331.514.514.899.514l4.95-.003c.09 3.663.101 7.86.113 12.3.02 8.416.042 17.118.593 23.937.056.7.8 1.081 1.541 1.081.055 0 .11-.002.167-.007.746-.058 1.216-.49 1.169-1.076-.592-7.33-.723-17.176-.838-25.863-.05-3.725-.097-7.246-.175-10.373l8.35-.005c.741 0 1.129-.654 1.129-1.299 0-.712-.456-1.23-1.083-1.23M79.061 3.861c-.238.02-.68.146-.965.776l-.259.572c-1.253 2.774-2.258 4.998-3.512 8.026-1.202-1.974-5.16-8.649-5.208-8.729-.32-.515-.994-.648-1.568-.308-.573.34-.946 1.109-.41 1.995.485.804.99 1.682 1.476 2.53.596 1.038 1.212 2.112 1.815 3.087.495.8 1.807 3.258 2.021 3.66.064.973.83 13.005.83 24.2 0 .723.382 1.039.61 1.162.183.1.399.15.622.15.285 0 .582-.08.837-.237.405-.249.624-.63.602-1.046-.297-5.613-.291-8.235-.286-10.77.005-2.55.01-5.186-.283-10.833.263-.75 3.175-8.988 4.972-12.334.205-.384.165-.856-.108-1.263-.284-.423-.75-.67-1.186-.638M87.794 19.38l-.125-.21c-1.17-1.982-2.624-4.448-2.686-7.904-.065-3.581 2.964-6.498 3.783-6.962 1.038-.586 1.171-1.235.969-1.613-.232-.434-.994-.71-2.377-.056-2.91 1.374-5.88 5.026-4.67 10.794.604 2.877 1.694 4.956 2.75 6.966a122.76 122.76 0 0 1 .884 1.709c.965 1.869 2.424 4.692 2.869 6.773.575 2.693-.138 6.826-1.388 8.042-.283.275-.566.376-.866.311-.923-.204-1.84.235-2.231 1.064-.367.777-.15 1.62.554 2.146.48.36 1.016.542 1.572.542.378 0 .766-.085 1.15-.254 2.046-.905 3.603-3.904 3.875-7.462.306-3.985-1.136-8.916-4.063-13.885"/>
    </g>
</svg>
