<?xml version="1.0" encoding="UTF-8"?>
<svg width="128px" height="36px" viewBox="0 0 128 36" version="1.1" xmlns="http://www.w3.org/2000/svg" xmlns:xlink="http://www.w3.org/1999/xlink">
    <!-- Generator: Sketch 50.2 (55047) - http://www.bohemiancoding.com/sketch -->
    <title>logo shopify</title>
    <desc>Created with Sketch.</desc>
    <defs></defs>
    <g id="logo-shopify" stroke="none" stroke-width="1" fill="none" fill-rule="evenodd">
        <g id="Group-20">
            <path d="M14.742217,1.24491506 C14.9446329,1.24491506 15.1488778,1.31307174 15.3439774,1.44636933 C13.8398811,2.1460309 12.2278703,3.90966056 11.5468506,7.43149147 C10.5518424,7.73608551 9.5793926,8.03404483 8.68010517,8.30968736 C9.47757497,5.62383138 11.3712609,1.24491506 14.742217,1.24491506 M16.1365698,2.55074892 C16.4255611,3.26669571 16.6127348,4.2932681 16.6127348,5.67871863 C16.6127348,5.74928794 16.6121251,5.81382569 16.6115155,5.8801729 C15.4689632,6.23000369 14.2282513,6.60999229 12.9844911,6.99058406 C13.6831917,4.32402909 14.9915787,3.03689307 16.1365698,2.55074892 M19.5983691,4.96518447 C19.0770872,5.12502094 18.4850817,5.3059679 17.8424723,5.50320008 C17.843082,5.38015615 17.8436917,5.260128 17.8436917,5.12803673 C17.8436917,3.98022987 17.6827344,3.05619408 17.4236177,2.32335891 C18.4625233,2.45243441 19.153298,3.62014543 19.5983691,4.96518447 M28.0272835,7.00928191 C28.0022863,6.82833495 27.8413291,6.72821097 27.7096369,6.716751 C27.5773349,6.70649734 24.7800937,6.50142412 24.7800937,6.50142412 C24.7800937,6.50142412 22.8376329,4.59364005 22.6248523,4.38193211 C22.4114621,4.17143049 21.9950463,4.23536508 21.8328697,4.28180813 C21.8090919,4.28904601 21.408528,4.41148678 20.7457989,4.61414737 C20.0964829,2.76667895 18.9514918,1.06939651 16.937088,1.06939651 C16.8816065,1.06939651 16.824296,1.07180913 16.7663758,1.07542807 C16.1938803,0.32570452 15.4842053,0 14.8708608,0 C10.1781046,0 7.93567809,5.80417518 7.23270967,8.75300741 C5.40852799,9.3121335 4.11355409,9.70961364 3.94771939,9.76088195 C2.9301528,10.0775391 2.89783942,10.1083001 2.7643181,11.0576685 C2.66311016,11.7760279 0,32.1530677 0,32.1530677 L20.7543345,36 L32,33.5934055 C32,33.5934055 28.0522806,7.19022886 28.0272835,7.00928191" id="Fill-1" fill="#333333"></path>
            <path d="M17,12.5302685 L15.6174667,16.5524621 C15.6174667,16.5524621 14.4046328,15.91935 12.9193066,15.91935 C10.7411932,15.91935 10.6317097,17.2557218 10.6317097,17.5927871 C10.6317097,19.4291093 15.5304881,20.1329634 15.5304881,24.4351531 C15.5304881,27.8200733 13.3341274,30 10.3719905,30 C6.81742612,30 5,27.8379075 5,27.8379075 L5.95189822,24.7644902 C5.95189822,24.7644902 7.8198084,26.3327058 9.39697907,26.3327058 C10.426124,26.3327058 10.8458107,25.539681 10.8458107,24.9606658 C10.8458107,22.564946 6.82654975,22.4579411 6.82654975,18.520757 C6.82654975,15.2071733 9.26012469,12 14.1728927,12 C16.0651325,12 17,12.5302685 17,12.5302685" id="Fill-5" fill="#FFFFFF"></path>
            <path d="M44.9154576,20.4565714 C43.8075707,19.8584966 43.2376625,19.3545077 43.2376625,18.6611484 C43.2376625,17.7790179 44.0286661,17.2127046 45.2636679,17.2127046 C46.7022943,17.2127046 47.9872986,17.8107794 47.9872986,17.8107794 L49,14.7245215 C49,14.7245215 48.0680255,14 45.3275265,14 C41.5122747,14 38.8681661,16.1735646 38.8681661,19.228061 C38.8681661,20.9605603 40.1031678,22.2837559 41.7490336,23.2282108 C43.0792208,23.9844938 43.5539435,24.5196449 43.5539435,25.3070902 C43.5539435,26.1262969 42.8894523,26.7872954 41.6544505,26.7872954 C39.8145991,26.7872954 38.0765601,25.8422413 38.0765601,25.8422413 L37,28.9290985 C37,28.9290985 38.6048998,30 41.3062403,30 C45.232341,30 48.0499523,28.0787295 48.0499523,24.6137309 C48.0499523,22.7559834 46.6257844,21.4327877 44.9154576,20.4565714" id="Fill-7" fill="#333333"></path>
            <path d="M59.4692591,13.3971715 C57.5629682,13.3971715 56.0627899,14.3014682 54.9062909,15.6748354 L54.8444524,15.6433661 L56.5004162,7 L52.187775,7 L48,29 L52.3126412,29 L53.7503865,21.4794343 C54.3128791,18.6394797 55.7815436,16.8920436 57.1562611,16.8920436 C58.1248662,16.8920436 58.5006541,17.546961 58.5006541,18.4833207 C58.5006541,19.0758933 58.438221,19.7937493 58.3127601,20.3869157 L56.6877155,29 L61.0003568,29 L62.6878345,20.1066609 C62.8757284,19.1703012 63,18.0463133 63,17.2975818 C63,14.863759 61.7192294,13.3971715 59.4692591,13.3971715" id="Fill-9" fill="#333333"></path>
            <path d="M70.7387195,26.6744021 C69.2161585,26.6744021 68.5682995,25.4190203 68.5682995,23.8514345 C68.5682995,21.3723091 69.8966878,17.3250009 72.3260048,17.3250009 C73.91329,17.3250009 74.4323169,18.6430623 74.4323169,19.9288886 C74.4323169,22.5960527 73.1039287,26.6744021 70.7387195,26.6744021 M72.9418098,14 C67.5641489,14 64,18.7051449 64,23.9451554 C64,27.3017946 66.1383661,30 70.1562012,30 C75.4364675,30 79,25.4190203 79,20.0542477 C79,16.9483267 77.1211474,14 72.9418098,14" id="Fill-11" fill="#333333"></path>
            <path d="M86.1783784,26.8334837 C85.0248288,26.8334837 84.3436036,26.2013724 84.3436036,26.2013724 L85.0842523,22.1236228 C85.5994595,19.4051232 87.0476757,17.603215 88.5932973,17.603215 C89.9453333,17.603215 90.3643604,18.8361628 90.3643604,20.0053583 C90.3643604,22.8188852 88.6576216,26.8334837 86.1783784,26.8334837 M90.4280721,14 C87.4299459,14 85.7281081,16.5921977 85.7281081,16.5921977 L85.6631712,16.5921977 L85.9210811,14.252604 L81.993009,14.252604 C81.800036,15.833183 81.4453333,18.2353263 81.0912432,20.0372345 L78,36 L82.4432793,36 L83.6666667,29.5519834 L83.7640721,29.5519834 C83.7640721,29.5519834 84.6762523,30.1209437 86.3713514,30.1209437 C91.5877477,30.1209437 95,24.8733973 95,19.5633013 C95,16.6234725 93.6804324,14 90.4280721,14" id="Fill-13" fill="#333333"></path>
            <path d="M100.668424,8 C99.1815377,8 98,9.17466803 98,10.6844995 C98,12.0602656 98.8781178,13 100.195937,13 L100.263435,13 C101.716251,13 102.96593,12.0270684 103,10.3155005 C103,8.97293156 102.087812,8 100.668424,8" id="Fill-15" fill="#333333"></path>
            <polygon id="Fill-17" fill="#333333" points="95 29 99.1639465 29 102 14 97.8067744 14"></polygon>
            <path d="M113.077286,13.9233348 L110.100885,13.9233348 L110.256047,13.2155459 C110.503835,11.7689401 111.371681,10.4768887 112.79823,10.4768887 C113.559882,10.4768887 114.162242,10.6923282 114.162242,10.6923282 L115,7.36940845 C115,7.36940845 114.255457,7 112.673746,7 C111.154572,7 109.635398,7.43087895 108.488496,8.41557785 C107.030678,9.64615876 106.349263,11.4305596 106.00826,13.2155459 L105.883776,13.9233348 L103.899115,13.9233348 L103.279646,17.1233136 L105.263717,17.1233136 L103,29 L107.279056,29 L109.542773,17.1233136 L112.487906,17.1233136 L113.077286,13.9233348 Z" id="Fill-19" fill="#333333"></path>
            <path d="M123.319387,14 C123.319387,14 120.515225,20.7253459 119.25663,24.3968207 L119.191072,24.3968207 C119.105104,23.2146011 118.085859,14 118.085859,14 L113.373085,14 L116.07087,27.8934354 C116.13581,28.2025316 116.103031,28.3879894 115.973151,28.6052399 C115.453014,29.5643215 114.575399,30.4927878 113.535744,31.1727995 C112.689671,31.7609656 111.747735,32.1324698 111,32.3797468 L112.235093,36 C113.145487,35.8145422 115.030596,35.1027377 116.623167,33.6797174 C118.670935,31.8539888 120.556045,29.0379747 122.506712,25.2010598 L128,14 L123.319387,14 Z" id="Fill-21" fill="#333333"></path>
        </g>
    </g>
</svg>