<?xml version="1.0" encoding="UTF-8"?>
<svg width="49px" height="36px" viewBox="0 0 49 36" version="1.1" xmlns="http://www.w3.org/2000/svg" xmlns:xlink="http://www.w3.org/1999/xlink">
    <!-- Generator: Sketch 50.2 (55047) - http://www.bohemiancoding.com/sketch -->
    <title>logo sap</title>
    <desc>Created with Sketch.</desc>
    <defs>
        <polygon id="path-1" points="0.365503704 0.422692683 48.5717037 0.422692683 48.5717037 23.4972293 0.365503704 23.4972293"></polygon>
    </defs>
    <g id="logo-sap" stroke="none" stroke-width="1" fill="none" fill-rule="evenodd">
        <g id="Group-Copy-4" transform="translate(0.000000, 6.000000)">
            <path d="M18.5,9 L17,13.7326816 C17.4463209,13.9022448 17.964415,14 18.5156815,14 C19.0542823,14 19.5591074,13.9058653 20,13.745957 L18.53076,9 L18.5,9 Z" id="Fill-29" fill="#333333"></path>
            <path d="M29.1785958,8 L28,8 L28,12 L29.1785958,12 C30.7498296,12 32,11.5166087 32,9.9772224 C32,8.48402404 30.7498296,8 29.1785958,8" id="Fill-31" fill="#333333"></path>
            <g id="Group-35">
                <mask id="mask-2" fill="white">
                    <use xlink:href="#path-1"></use>
                </mask>
                <g id="Clip-34"></g>
                <path d="M29.7400963,14.6201561 L28.2071827,14.6201561 L28.2071827,19.0297171 L21.1784049,19.0297171 L20.481516,16.9200585 C19.7380469,17.155961 18.8965778,17.2882537 18.0073185,17.2882537 C17.0932568,17.2882537 16.2318247,17.1471805 15.474442,16.9007415 L14.7509358,19.0297171 L10.4419605,19.0297171 L10.916837,17.7986927 C10.8599728,17.847278 10.8025037,17.8976195 10.7438247,17.943278 C9.66824444,18.7785951 8.32528148,19.2404488 6.65928148,19.2685463 L6.41186173,19.2703024 C4.50086173,19.2703024 2.62615802,18.7598634 1.04121975,17.8876683 L2.50698519,15.0714732 C4.09373827,15.9787902 5.09067654,16.1824976 6.4366642,16.1561561 C7.13294815,16.1438634 7.63686173,16.0203512 7.96594815,15.6913756 C8.1643679,15.4900098 8.2702321,15.2418146 8.27628148,14.9748878 C8.28898519,14.2431805 7.21400988,13.9007415 5.89705926,13.5067902 C4.82934321,13.1854244 3.61704691,12.7487415 2.67213333,12.0773268 C1.54876296,11.2794732 1.01520741,10.280839 1.04121975,8.87127805 C1.05876296,7.84630244 1.45076296,6.92259512 2.17729383,6.19322927 C3.21960247,5.15069268 4.90314568,4.51557073 6.92242963,4.51557073 L6.93392346,4.51557073 C8.66525679,4.51849756 10.7783062,4.99322927 12.3100099,5.74718049 L10.6573185,8.52532683 C8.98405926,7.74269268 8.14138025,7.66952195 7.18678765,7.61976585 C5.76760247,7.54483902 5.04833086,8.03771707 5.03986173,8.5668878 C5.02715802,9.21313171 6.38040494,9.7979122 7.66105926,10.1942049 C9.59746667,10.7901073 12.0583556,11.5867902 12.4340222,13.887278 L15.973516,4.75908293 L20.0834667,4.75908293 L24.2291086,15.6755707 L24.2291086,4.75908293 L28.9736395,4.76025366 C33.5088617,4.76025366 35.6400593,6.32435122 35.6400593,9.73352195 C35.6400593,12.7949854 33.4459481,14.6201561 29.7400963,14.6201561 Z M0.365503704,0.422692683 L0.365503704,23.4972293 L24.7275778,23.4972293 L48.5724296,0.422692683 L0.365503704,0.422692683 Z" id="Fill-33" fill="#333333" mask="url(#mask-2)"></path>
            </g>
            <path d="M31.1900348,22.3917465 L31.1900348,21.8572267 L31.5440324,21.8572267 C31.7207416,21.8572267 31.9119351,21.8953648 31.9119351,22.1106982 C31.9119351,22.3782515 31.7172654,22.3917465 31.5005794,22.3917465 L31.1900348,22.3917465 Z M31.1900348,22.6147076 L31.4878331,22.6147076 L31.9374276,23.3633874 L32.2288528,23.3633874 L31.7410197,22.6017993 C31.9918888,22.5724624 32.1848204,22.4363387 32.1848204,22.1265402 C32.1848204,21.7862312 31.9855156,21.6348523 31.5828505,21.6348523 L30.9322132,21.6348523 L30.9322132,23.3633874 L31.1900348,23.3633874 L31.1900348,22.6147076 Z M31.504635,24 C32.3099652,24 33,23.3633874 33,22.4961862 C33,21.6348523 32.3099652,21 31.504635,21 C30.688876,21 30,21.6348523 30,22.4961862 C30,23.3633874 30.688876,24 31.504635,24 Z M30.2977984,22.4961862 C30.2977984,21.7862312 30.8267671,21.2481909 31.504635,21.2481909 C32.1726535,21.2481909 32.7022016,21.7862312 32.7022016,22.4961862 C32.7022016,23.2184627 32.1726535,23.7488754 31.504635,23.7488754 C30.8267671,23.7488754 30.2977984,23.2184627 30.2977984,22.4961862 Z" id="Fill-36" fill="#333333"></path>
        </g>
    </g>
</svg>