<?xml version="1.0" encoding="UTF-8"?>
<svg width="155px" height="36px" viewBox="0 0 155 36" version="1.1" xmlns="http://www.w3.org/2000/svg" xmlns:xlink="http://www.w3.org/1999/xlink">
    <!-- Generator: Sketch 50.2 (55047) - http://www.bohemiancoding.com/sketch -->
    <title>logo hootsuite</title>
    <desc>Created with Sketch.</desc>
    <defs></defs>
    <g id="logo-hootsuite" stroke="none" stroke-width="1" fill="none" fill-rule="evenodd">
        <g id="Group-18" transform="translate(0.000000, 1.000000)">
            <polygon id="Fill-38" fill="#333333" points="36.3821465 6 36.3821465 13.3289238 43.6172529 13.3289238 43.6172529 6 48 6 48 25 43.6172529 25 43.6172529 17.0767757 36.3821465 17.0767757 36.3821465 25 32 25 32 6"></polygon>
            <path d="M57.4278317,26 C53.2298377,26 50,23.2408661 50,18.6033681 C50,13.9652585 53.0536981,11 57.6908179,11 C62.0649515,11 65,14.0227532 65,18.3684962 C65,23.5925624 61.2735464,26 57.4559651,26 L57.4278317,26 Z M57.5146783,22.8017045 C59.2772976,22.8017045 60.3634918,21.0689121 60.3634918,18.4853205 C60.3634918,16.3702496 59.5390606,14.1989072 57.5146783,14.1989072 C55.4016146,14.1989072 54.5802414,16.3702496 54.5802414,18.5159028 C54.5802414,20.9508645 55.6071108,22.8017045 57.4853217,22.8017045 L57.5146783,22.8017045 Z" id="Fill-40" fill="#333333"></path>
            <path d="M73.4256941,26 C69.2278713,26 66,23.2408661 66,18.6033681 C66,13.9652585 69.052962,11 73.6911159,11 C78.0644596,11 81,14.0227532 81,18.3684962 C81,23.5925624 77.2706405,26 73.4550495,26 L73.4256941,26 Z M73.5137603,22.8017045 C75.2756962,22.8017045 76.3624577,21.0689121 76.3624577,18.4853205 C76.3624577,16.3702496 75.5380601,14.1989072 73.5137603,14.1989072 C71.3995597,14.1989072 70.5794431,16.3702496 70.5794431,18.5159028 C70.5794431,20.9508645 71.6050475,22.8017045 73.4856281,22.8017045 L73.5137603,22.8017045 Z" id="Fill-42" fill="#333333"></path>
            <path d="M82,14.6268724 L82,20.5186435 C82,22.5420122 82.3809139,23.9198329 83.1410463,24.7675346 C83.8181011,25.5028608 84.9297594,26 86.2590021,26 C87.3989181,26 88.4009365,25.824108 88.9174875,25.6189007 L88.8892298,22.2482482 C88.5105765,22.3368049 88.2393024,22.3661202 87.669627,22.3661202 C86.4494591,22.3661202 86.0419829,21.5733848 86.0419829,19.8437801 L86.0419829,14.6268724 L89,14.6268724 L89,11.3435551 L86.0419829,11.3435551 L86.0419829,8.57081324 L86.0267237,8.58058502 L86.0267237,7 C83.8051025,7 82.0033909,8.94030858 82.0033909,11.3435551 L82,11.3435551 L82,14.6268724 Z" id="Fill-44" fill="#333333"></path>
            <path d="M126,14.6268724 L126,20.5186435 C126,22.5420122 126.38151,23.9198329 127.140008,24.7675346 C127.818248,25.5028608 128.929431,26 130.258781,26 C131.398224,26 132.401453,25.824108 132.918046,25.6189007 L132.889786,22.2482482 C132.511667,22.3368049 132.238676,22.3661202 131.668954,22.3661202 C130.449253,22.3661202 130.042309,21.5733848 130.042309,19.8437801 L130.042309,14.6268724 L133,14.6268724 L133,11.3435551 L130.042309,11.3435551 L130.042309,8.57081324 L130.027049,8.58058502 L130.027049,7 C127.805248,7 126.003391,8.94030858 126.003391,11.3435551 L126,11.3435551 L126,14.6268724 Z" id="Fill-46" fill="#333333"></path>
            <path d="M91.8054991,21.802006 C92.6401874,22.3010683 94.3673216,22.8594553 95.7112692,22.8594553 C97.0813008,22.8594553 97.6476965,22.4184947 97.6476965,21.6858028 C97.6476965,20.9219196 97.2011631,20.5690288 95.5311653,20.0112534 C92.491136,19.0449319 91.3266712,17.3991275 91.3577236,15.7258012 C91.3577236,13.0249939 93.6816847,11 97.2905939,11 C98.9891599,11 100.479054,11.4109924 101.373363,11.8513414 L100.598916,14.904428 C99.9424684,14.5815053 98.6606256,14.1117997 97.4377823,14.1117997 C96.3360434,14.1117997 95.7112692,14.5515371 95.7112692,15.2560956 C95.7112692,15.9600424 96.2764228,16.3135448 98.0650407,16.9312566 C100.836777,17.8394765 101.97019,19.2467585 102,21.3323004 C102,24.0331077 99.8834688,26 95.7112692,26 C93.802168,26 92.102981,25.5602626 91,24.9731306 L91.8054991,21.802006 Z" id="Fill-48" fill="#333333"></path>
            <path d="M116.879456,20.2963873 C116.879456,22.088462 116.941914,23.543356 117,24.6925705 L113.04265,24.6925705 L112.832791,22.7610734 L112.743475,22.7610734 C112.173857,23.600525 110.795405,25 108.157796,25 C105.158555,25 103,23.264511 103,19.0351681 L103,11 L107.556324,11 L107.556324,18.3654736 C107.556324,20.3523897 108.247736,21.5546898 109.865403,21.5546898 C111.12331,21.5546898 111.872808,20.7438227 112.142628,20.0706279 C112.263172,19.8197842 112.322507,19.5123547 112.322507,19.1477562 L112.322507,11 L116.879456,11 L116.879456,20.2963873 Z" id="Fill-50" fill="#333333"></path>
            <polygon id="Fill-52" fill="#333333" points="119 25 123 25 123 11 119 11"></polygon>
            <path d="M139.054709,19.9230675 C139.193924,21.8029599 140.92683,22.6829746 142.912537,22.6829746 C144.366431,22.6829746 145.540729,22.4781067 146.687651,22.0671477 L147.246841,25.0906311 C145.847119,25.7070695 144.14159,26 142.296263,26 C137.656734,26 135,23.1826076 135,18.6614481 C135,15.0209149 137.180258,11 141.90716,11 C146.323595,11 148,14.6124022 148,18.1630382 C148,18.9244129 147.916704,19.6013943 147.861368,19.9530333 L139.054709,19.9230675 Z M144.058876,16.8702299 C144.058876,15.8153131 143.611524,13.9641634 141.681737,13.9641634 C139.865535,13.9641634 139.138588,15.6966732 139.026167,16.8702299 L144.058876,16.8702299 Z" id="Fill-55" fill="#333333"></path>
            <path d="M17.268475,1.52888842 C15.5806153,0.564495083 13.6237473,0.00723666806 11.5345101,3.0740275e-05 C9.41965299,-0.00477321158 7.43838509,0.553686192 5.73283552,1.52888842 C4.04436584,0.572901999 2.08749779,0.0252514875 9.05491066e-05,0.0312564273 L9.05491066e-05,11.354171 C-0.0352892347,23.8666641 10.3017076,33.9651713 23,34 L23,11.354171 L23,0.0312564273 C20.9144227,0.0252514875 18.9575547,0.572901999 17.268475,1.52888842" id="Fill-56" fill="#333333"></path>
            <path d="M16.2401554,11.9501349 C14.4906153,11.946019 13.0765311,10.5225135 13.0818185,8.77208962 C13.0829934,8.44634733 13.1335174,8.13060074 13.2257531,7.83484556 C13.4713232,8.3869611 14.0229747,8.77444155 14.6662743,8.77679348 C15.5404568,8.77855743 16.2513176,8.0718025 16.2530801,7.19688457 C16.2548426,6.55245578 15.8718002,5.99975225 15.3207362,5.75044768 C15.6162428,5.6593104 15.931724,5.61109584 16.25778,5.61168382 C18.0061451,5.61697566 19.4214043,7.03930527 19.4161169,8.79031708 C19.410242,10.5413289 17.9885204,11.9560147 16.2401554,11.9501349 M6.73929518,11.9236757 C4.99093011,11.9183838 3.57567089,10.4960542 3.58095828,8.74563041 C3.58624568,6.9946186 5.00972974,5.57934478 6.75809481,5.58463663 C7.08415079,5.58581259 7.39728204,5.6357911 7.69396361,5.72810435 C7.14172464,5.97446901 6.75574485,6.5248206 6.75456988,7.1692494 C6.75221992,8.04357934 7.45779333,8.75562611 8.33197586,8.75856603 C8.97527551,8.75974199 9.52751448,8.3769654 9.77778448,7.82543784 C9.86767018,8.12178101 9.91643171,8.43693961 9.91525673,8.76326989 C9.90996933,10.5136937 8.48824774,11.9295555 6.73929518,11.9236757 M16.2618924,4.02648307 C13.782692,4.02001526 11.7429327,5.91861067 11.5220371,8.34521435 L11.5003001,8.31581522 L11.4791505,8.34521435 C11.2717671,5.91743471 9.24258267,4.00649166 6.76220722,4.00002386 C4.13848465,3.9917921 2.00648974,6.11499682 2.00002737,8.74033857 C1.99121505,11.3668563 4.11146019,13.5012327 6.73518276,13.5082885 C7.66811413,13.5112284 8.53700927,13.2401685 9.27254457,12.7768383 L11.4803255,15 L13.7027936,12.7903619 C14.4359789,13.2572199 15.3013491,13.5323957 16.234868,13.5353357 C18.8597655,13.5435674 20.9911729,11.4203627 20.9999853,8.79502094 C21.0064476,6.16909121 18.88679,4.03353886 16.2618924,4.02648307" id="Fill-57" fill="#FFFFFF"></path>
            <path d="M152.071088,13.3983031 L152.430015,13.3983031 C152.607155,13.3983031 152.749448,13.3523942 152.857475,13.2605765 C152.96434,13.1681776 153.018353,13.0513715 153.018353,12.9095769 C153.018353,12.7433752 152.970728,12.6242445 152.87606,12.552185 C152.78023,12.4801255 152.629225,12.4435146 152.423046,12.4435146 L152.071088,12.4435146 L152.071088,13.3983031 Z M153.513765,12.8962111 C153.513765,13.0734542 153.466721,13.230358 153.372633,13.3663412 C153.277965,13.5034868 153.146126,13.6046025 152.975955,13.6714319 L153.766407,14.9853556 L153.20769,14.9853556 L152.519456,13.8074152 L152.071088,13.8074152 L152.071088,14.9853556 L151.578581,14.9853556 L151.578581,12.0216179 L152.446277,12.0216179 C152.814496,12.0216179 153.083982,12.0936774 153.255895,12.2377964 C153.427808,12.3813343 153.513765,12.6015807 153.513765,12.8962111 Z M150.348473,13.5017434 C150.348473,13.8852859 150.445464,14.2438401 150.637705,14.5774059 C150.830526,14.9115528 151.093623,15.1742213 151.427576,15.3665737 C151.760948,15.558345 152.118132,15.6542306 152.49971,15.6542306 C152.884772,15.6542306 153.243698,15.5577638 153.573586,15.3648303 C153.903473,15.1718968 154.165989,14.9103905 154.359391,14.5808926 C154.553374,14.2519758 154.650366,13.8922594 154.650366,13.5017434 C154.650366,13.1158763 154.554536,12.7573222 154.361714,12.4272431 C154.168312,12.0971641 153.907539,11.8344956 153.578813,11.6409809 C153.249506,11.446304 152.889999,11.3498373 152.49971,11.3498373 C152.114067,11.3498373 151.756302,11.4457229 151.425833,11.6392376 C151.095946,11.8321711 150.83343,12.0930962 150.639447,12.422013 C150.446045,12.7515109 150.348473,13.1112273 150.348473,13.5017434 Z M150,13.5017434 C150,13.0577638 150.11093,12.6422594 150.33221,12.2540679 C150.554071,11.8658763 150.858404,11.5602046 151.24637,11.3358903 C151.634336,11.111576 152.051922,11 152.49971,11 C152.942851,11 153.358694,11.1109949 153.74666,11.3324035 C154.134627,11.5543933 154.440121,11.8600651 154.664305,12.2476755 C154.888489,12.635867 155,13.0531148 155,13.5017434 C155,13.9387494 154.891974,14.3484426 154.677082,14.7325662 C154.462191,15.1161088 154.161343,15.4229428 153.773377,15.6542306 C153.385411,15.8843561 152.960274,16 152.49971,16 C152.040887,16 151.617493,15.8843561 151.230108,15.655974 C150.842142,15.4258484 150.539552,15.1195955 150.323499,14.736053 C150.107446,14.3525105 150,13.9410739 150,13.5017434 Z" id="Fill-58" fill="#333333"></path>
        </g>
    </g>
</svg>