<?xml version="1.0" encoding="UTF-8"?>
<svg width="232px" height="36px" viewBox="0 0 232 36" version="1.1" xmlns="http://www.w3.org/2000/svg" xmlns:xlink="http://www.w3.org/1999/xlink">
    <!-- Generator: Sketch 50.2 (55047) - http://www.bohemiancoding.com/sketch -->
    <title>logo general assembly</title>
    <desc>Created with Sketch.</desc>
    <defs>
        <polygon id="path-1" points="0.811181181 0.560011462 25.7523395 0.560011462 25.7523395 26.0792291 0.811181181 26.0792291"></polygon>
        <polygon id="path-3" points="-67.0418251 114.074683 231.630805 114.074683 231.630805 -0.602123547 -67.0418251 -0.602123547"></polygon>
    </defs>
    <g id="logo-general-assembly" stroke="none" stroke-width="1" fill="none" fill-rule="evenodd">
        <g id="Group-21" transform="translate(0.000000, 5.000000)">
            <path d="M33.5298645,3.44383014 C32.5328602,4.52599821 32.0334663,5.96748695 32.0334663,7.76529198 L32.0334663,19.1025197 C32.0334663,21.0102841 32.4954057,22.4391545 33.4163118,23.3909337 C34.3366235,24.3445154 35.8068629,24.820405 37.8216795,24.820405 C39.6212811,24.820405 41.0136388,24.3403093 41.9993473,23.3771137 C42.9856502,22.4103128 43.4785045,20.9976658 43.4785045,19.1355676 L43.4785045,12.020658 L38.0154919,12.020658 L38.0154919,15.8866599 L39.3020257,15.8866599 L39.3020257,19.361495 C39.3020257,19.7316313 39.1664759,20.030264 38.8935928,20.2561914 C38.6213042,20.4827197 38.2289233,20.597486 37.8109782,20.597486 C37.26759,20.597486 36.7723578,20.4556805 36.6249177,20.1750739 C36.4798556,19.8950681 36.4067301,19.6006415 36.4067301,19.2990044 L36.4067301,7.76529198 C36.4067301,7.6132717 36.4275382,7.43421224 36.4691543,7.22751273 C36.5107705,7.0214141 36.5844905,6.83334158 36.6891254,6.66029082 C36.7937604,6.4866392 36.9358498,6.33942589 37.1136103,6.22105437 C37.2913707,6.10268285 37.5279883,6.04379752 37.8216795,6.04379752 C38.2616217,6.04379752 38.6106029,6.2655188 38.8733793,6.70896135 C39.1367501,7.15180303 39.278245,7.70941101 39.3002421,8.38178529 L43.5433068,7.63490305 C43.6075145,6.81110936 43.5379561,6.04379752 43.3328479,5.32695881 C43.1289287,4.61312446 42.7870817,3.99542942 42.3043343,3.47687803 C41.8233704,2.95592316 41.2116128,2.54913372 40.4720343,2.2565097 C39.7330502,1.9656883 38.8597054,1.81847499 37.8525943,1.81847499 C35.9667878,1.81847499 34.5256797,2.35925859 33.5298645,3.44383014 Z M55.5977243,24.6269246 L55.5977243,20.4016021 L49.713794,20.4016021 L49.713794,15.2695657 L54.8575512,15.2695657 L54.8575512,11.0442432 L49.713794,11.0442432 L49.713794,6.236677 L55.5977243,6.236677 L55.5977243,2.01435883 L45.3411248,2.01435883 L45.3411248,24.6269246 L55.5977243,24.6269246 Z M65.0790743,13.7481612 L60.9329159,2.01435883 L57.1060128,2.01435883 L57.1060128,24.6269246 L61.4792766,24.6269246 L61.4792766,12.6960367 L61.638607,12.6960367 L65.8008174,24.6269246 L69.5141678,24.6269246 L69.5141678,2.01435883 L65.2395938,2.01435883 L65.2395938,13.7481612 L65.0790743,13.7481612 Z M82.1167296,24.6269246 L82.1167296,20.4016021 L76.2327993,20.4016021 L76.2327993,15.2695657 L81.3765565,15.2695657 L81.3765565,11.0442432 L76.2327993,11.0442432 L76.2327993,6.236677 L82.1167296,6.236677 L82.1167296,2.01435883 L71.8625081,2.01435883 L71.8625081,24.6269246 L82.1167296,24.6269246 Z M83.7225188,2.01435883 L83.7225188,24.6269246 L88.0945935,24.6269246 L88.0945935,15.8205641 L88.9613987,15.8205641 L91.5986741,24.6269246 L96.0658714,24.6269246 L92.8525095,14.8141058 C93.6878052,14.2300595 94.3096696,13.4501294 94.7163189,12.4737145 C95.1241572,11.4997032 95.3280764,10.2438835 95.3280764,8.70565458 C95.3280764,7.47086536 95.171124,6.42775388 94.8613809,5.57091231 C94.5510433,4.71587335 94.1164517,4.02126685 93.5611732,3.49250067 C93.0029222,2.96193187 92.3376582,2.58158074 91.5659757,2.35565336 C90.7936987,2.12912512 89.9471071,2.01435883 89.026201,2.01435883 L83.7225188,2.01435883 Z M88.8995689,6.236677 C89.5612659,6.236677 90.103465,6.43736781 90.5220046,6.83754767 C90.9393552,7.23953015 91.1480305,7.8734487 91.1480305,8.73930333 C91.1480305,9.32274875 91.0850118,9.79443223 90.9560017,10.1519503 C90.8263971,10.5100692 90.6510147,10.7972854 90.4239094,11.0135988 C90.2003712,11.2305131 89.9471071,11.375323 89.6706569,11.4522344 C89.3900451,11.528545 89.0910033,11.5651981 88.7699643,11.5651981 L88.0945935,11.5651981 L88.0945935,6.236677 L88.8995689,6.236677 Z M105.163758,24.6269246 L109.76056,24.6269246 L105.485392,2.01435883 L100.149606,2.01435883 L95.906541,24.6269246 L100.535447,24.6269246 L101.210818,20.20692 L104.488387,20.20692 L105.163758,24.6269246 Z M102.754183,7.86083042 L102.945617,7.86083042 L103.428364,12.443671 L103.84631,16.0476933 L101.821981,16.0476933 L102.270246,12.443671 L102.754183,7.86083042 Z M121.140201,24.6269246 L121.140201,20.4016021 L115.256866,20.4016021 L115.256866,2.01435883 L110.886575,2.01435883 L110.886575,24.6269246 L121.140201,24.6269246 Z M136.246867,24.6269246 L140.844858,24.6269246 L136.568501,2.01435883 L131.232714,2.01435883 L126.989055,24.6269246 L131.618556,24.6269246 L132.292737,20.20692 L135.57328,20.20692 L136.246867,24.6269246 Z M133.837291,7.86083042 L134.028726,7.86083042 L134.511473,12.443671 L134.930013,16.0476933 L132.905684,16.0476933 L133.35395,12.443671 L133.837291,7.86083042 Z M152.947431,15.6433073 C152.851714,14.9607182 152.649579,14.348431 152.341025,13.8076474 C152.029498,13.2662629 151.577071,12.7675403 150.978987,12.3132821 C150.381498,11.8572212 149.570577,11.4245943 148.548604,11.0135988 C147.95052,10.7744523 147.485013,10.5521301 147.154462,10.3454306 C146.823911,10.1417355 146.574809,9.92902726 146.402993,9.71331469 C146.232962,9.4957995 146.126543,9.26987213 146.083143,9.03132648 C146.040933,8.79338169 146.018341,8.52238902 146.018341,8.22075195 C146.018341,7.98160542 146.034988,7.7322441 146.067091,7.47086536 C146.099195,7.21309184 146.162214,6.97875228 146.258526,6.77205277 C146.353648,6.56835761 146.485037,6.39470599 146.655068,6.25350138 C146.823911,6.11289765 147.056367,6.04379752 147.35422,6.04379752 C147.671097,6.04379752 147.919605,6.10688894 148.100338,6.236677 C148.280477,6.36826768 148.424944,6.54552453 148.530174,6.77205277 C148.634214,7.00158536 148.704367,7.25455191 148.735876,7.53636026 C148.768575,7.8181686 148.784627,8.12220916 148.784627,8.44667932 L153.092494,7.50331237 C153.092494,6.87600339 153.0051,6.22706307 152.833879,5.55589054 C152.662064,4.88351626 152.367183,4.27062818 151.950427,3.71902891 C151.531888,3.16863138 150.958774,2.71317141 150.231085,2.35565336 C149.502208,1.99813532 148.581302,1.81847499 147.467178,1.81847499 C146.416667,1.81847499 145.52192,1.98131094 144.781747,2.3057811 C144.042763,2.62844865 143.442301,3.07249207 142.982145,3.63550789 C142.5208,4.19672109 142.183709,4.87330146 141.969089,5.66104291 C141.755063,6.4517887 141.64805,7.31163463 141.64805,8.24058068 C141.64805,8.97544551 141.700962,9.64902152 141.807975,10.2685192 C141.914988,10.882609 142.144471,11.4672562 142.498803,12.0188554 C142.854324,12.5698538 143.361447,13.0890061 144.026711,13.5763122 C144.69138,14.0624166 145.570076,14.5328983 146.662797,14.9859548 C147.069446,15.1590055 147.413077,15.3260476 147.691905,15.4876818 C147.967761,15.6517195 148.188326,15.8415946 148.350035,16.0573072 C148.511744,16.2724189 148.623513,16.5313941 148.68772,16.8354347 C148.752523,17.1382735 148.784627,17.5156203 148.784627,17.9692777 C148.784627,18.2937478 148.768575,18.6188188 148.735876,18.9426881 C148.704367,19.26836 148.641348,19.5501684 148.546225,19.7869114 C148.449319,20.0254571 148.311391,20.2195383 148.131847,20.3703568 C147.952898,20.5223771 147.702012,20.597486 147.386918,20.597486 C146.835207,20.597486 146.4565,20.3907864 146.256742,19.9803918 C146.055201,19.5681945 145.932731,18.9517012 145.89052,18.1279075 L141.486936,18.9715299 C141.486936,19.7742931 141.593949,20.5301884 141.807975,21.2362115 C142.021406,21.9476423 142.359686,22.5677409 142.82222,23.101314 C143.281187,23.6378915 143.881054,24.0572993 144.621822,24.3631424 C145.360211,24.667183 146.244852,24.820405 147.272771,24.820405 C148.408892,24.820405 149.350606,24.6593717 150.102075,24.3349015 C150.851761,24.007427 151.448061,23.5501644 151.886219,22.9534998 C152.324378,22.358037 152.63531,21.6363913 152.81961,20.7915672 C152.999749,19.9479448 153.092494,19.0045778 153.092494,17.9650716 C153.092494,17.0992169 153.044338,16.3252955 152.947431,15.6433073 Z M165.86806,15.6433073 C165.772937,14.9607182 165.570801,14.348431 165.261653,13.8076474 C164.953099,13.2662629 164.498294,12.7675403 163.901993,12.3132821 C163.30391,11.8572212 162.493584,11.4245943 161.469826,11.0135988 C160.871148,10.7744523 160.408614,10.5521301 160.076874,10.3454306 C159.746323,10.1417355 159.49722,9.92902726 159.326,9.71331469 C159.15359,9.4957995 159.048955,9.26987213 159.004366,9.03132648 C158.961561,8.79338169 158.941942,8.52238902 158.941942,8.22075195 C158.941942,7.98160542 158.957994,7.7322441 158.990098,7.47086536 C159.020418,7.21309184 159.082842,6.97875228 159.180343,6.77205277 C159.274871,6.56835761 159.407448,6.39470599 159.578075,6.25350138 C159.746323,6.11289765 159.979968,6.04379752 160.276632,6.04379752 C160.59232,6.04379752 160.843206,6.10688894 161.02275,6.236677 C161.202888,6.36826768 161.345572,6.54552453 161.451396,6.77205277 C161.556626,7.00158536 161.626779,7.25455191 161.660072,7.53636026 C161.689203,7.8181686 161.705849,8.12220916 161.705849,8.44667932 L166.013716,7.50331237 C166.013716,6.87600339 165.928106,6.22706307 165.756885,5.55589054 C165.585664,4.88351626 165.29019,4.27062818 164.87165,3.71902891 C164.456083,3.16863138 163.879996,2.71317141 163.152308,2.35565336 C162.425214,1.99813532 161.50193,1.81847499 160.388401,1.81847499 C159.337295,1.81847499 158.442548,1.98131094 157.702969,2.3057811 C156.965769,2.62844865 156.362929,3.07249207 155.902773,3.63550789 C155.442617,4.19672109 155.104932,4.87330146 154.890906,5.66104291 C154.67688,6.4517887 154.569273,7.31163463 154.569273,8.24058068 C154.569273,8.97544551 154.623968,9.64902152 154.730387,10.2685192 C154.8374,10.882609 155.068667,11.4672562 155.421809,12.0188554 C155.775547,12.5698538 156.285047,13.0890061 156.949717,13.5763122 C157.612008,14.0624166 158.490704,14.5328983 159.58402,14.9859548 C159.990075,15.1590055 160.333705,15.3260476 160.612533,15.4876818 C160.891362,15.6517195 161.111333,15.8415946 161.271258,16.0573072 C161.432966,16.2724189 161.545924,16.5313941 161.610727,16.8354347 C161.673745,17.1382735 161.705849,17.5156203 161.705849,17.9692777 C161.705849,18.2937478 161.689203,18.6188188 161.660072,18.9426881 C161.626779,19.26836 161.56376,19.5501684 161.467448,19.7869114 C161.371731,20.0254571 161.234398,20.2195383 161.055448,20.3703568 C160.872932,20.5223771 160.624424,20.597486 160.306952,20.597486 C159.755241,20.597486 159.380695,20.3907864 159.177965,19.9803918 C158.978207,19.5681945 158.855142,18.9517012 158.812337,18.1279075 L154.409348,18.9715299 C154.409348,19.7742931 154.516955,20.5301884 154.730387,21.2362115 C154.945602,21.9476423 155.282692,22.5677409 155.742254,23.101314 C156.204193,23.6378915 156.80406,24.0572993 157.544233,24.3631424 C158.283218,24.667183 159.16548,24.820405 160.194588,24.820405 C161.32952,24.820405 162.273613,24.6593717 163.022703,24.3349015 C163.775361,24.007427 164.368689,23.5501644 164.809226,22.9534998 C165.247979,22.358037 165.557128,21.6363913 165.740239,20.7915672 C165.922161,19.9479448 166.013716,19.0045778 166.013716,17.9650716 C166.013716,17.0992169 165.964966,16.3252955 165.86806,15.6433073 Z M178.068134,24.6269246 L178.068134,20.4016021 L172.183609,20.4016021 L172.183609,15.2695657 L177.328555,15.2695657 L177.328555,11.0442432 L172.183609,11.0442432 L172.183609,6.236677 L178.068134,6.236677 L178.068134,2.01435883 L167.813318,2.01435883 L167.813318,24.6269246 L178.068134,24.6269246 Z M188.619019,20.20692 L190.667723,11.9755927 L190.926338,11.9755927 L190.926338,24.6269246 L195.296034,24.6269246 L195.296034,2.01435883 L191.214678,2.01435883 L189.028641,7.95877234 L187.484087,12.5416129 L187.292058,12.5416129 L185.783175,8.05671426 L183.562656,2.01435883 L179.482489,2.01435883 L179.482489,24.6269246 L183.854563,24.6269246 L183.854563,11.8800543 L184.145282,11.8800543 L186.225495,20.20692 L188.619019,20.20692 Z M202.498008,10.7191722 L201.749512,10.7191722 L201.749512,5.89598334 L202.399318,5.89598334 C203.106793,5.89598334 203.622239,6.04259578 203.943872,6.33521979 C204.265506,6.62724294 204.425431,7.27317891 204.425431,8.44667932 C204.425431,9.96447862 203.782164,10.7191722 202.498008,10.7191722 Z M204.555035,18.7269756 C204.512825,19.0959102 204.42008,19.4233847 204.282152,19.7045921 C204.141252,19.9882031 203.949817,20.2111261 203.701309,20.3769664 C203.457558,20.5373989 203.129979,20.6191173 202.722141,20.6191173 L201.749512,20.6191173 L201.749512,14.8141058 L202.754245,14.8141058 C203.376703,14.8141058 203.841615,14.9997748 204.152547,15.3693103 C204.464669,15.7412492 204.618054,16.3823782 204.618054,17.2975042 C204.618054,17.7337364 204.597246,18.3550366 204.555035,18.7269756 Z M206.162013,12.6371514 C206.59066,12.4863328 206.960449,12.2592037 207.271976,11.9551631 C207.581124,11.6505217 207.832605,11.305622 208.027012,10.9156569 C208.219635,10.5256918 208.362914,10.1092885 208.459225,9.66524503 C208.557321,9.22060074 208.606071,8.77114948 208.606071,8.31629038 C208.606071,6.236677 208.105488,4.66720282 207.109673,3.60546435 C206.114452,2.5455285 204.618054,2.01435883 202.62464,2.01435883 L197.579573,2.01435883 L197.579573,24.6269246 L202.530112,24.6269246 C204.606758,24.6269246 206.171526,24.0572993 207.223225,22.9216537 C208.271953,21.7836047 208.7981,20.0014223 208.7981,17.5751065 C208.7981,17.0559542 208.755295,16.5476177 208.66909,16.0476933 C208.58229,15.5507732 208.438417,15.0899054 208.236282,14.6698968 C208.031173,14.2468839 207.763047,13.8725414 207.431306,13.5474704 C207.100161,13.2211976 206.675676,12.9730381 206.162013,12.7999873 L206.162013,12.6371514 Z M220.604604,24.6269246 L220.604604,20.4016021 L215.077384,20.4016021 L215.077384,2.01435883 L210.707687,2.01435883 L210.707687,24.6269246 L220.604604,24.6269246 Z M225.089637,10.2661157 L223.206208,2.01435883 L218.548766,2.01435883 L222.920246,15.4312 L222.920246,24.6269246 L227.291132,24.6269246 L227.291132,15.4312 L231.630508,2.01435883 L227.004575,2.01435883 L225.247184,10.2661157 L225.089637,10.2661157 Z" id="Fill-23" fill="#333333"></path>
            <mask id="mask-2" fill="white">
                <use xlink:href="#path-1"></use>
            </mask>
            <g id="Clip-26"></g>
            <path d="M17.1342276,20.718261 L16.6806115,17.12205 L15.479688,17.12205 L15.0266664,20.718261 L12.9208888,20.718261 L14.8524731,5.91881642 L17.2810732,5.91881642 L19.2257368,20.718261 L17.1342276,20.718261 Z M12.443492,10.8038949 L10.4524561,10.8038949 L10.4524561,8.56805519 C10.4524561,8.4983542 10.4429438,8.41663579 10.4251083,8.32169822 C10.4048948,8.22676065 10.3727909,8.13903354 10.324635,8.05851687 C10.2764792,7.98040368 10.2116769,7.91190442 10.1314171,7.85722519 C10.0499684,7.80194509 9.94176637,7.77550678 9.80800015,7.77550678 C9.79789336,7.77550678 9.79016465,7.77670852 9.77946335,7.77791027 L9.77946335,7.77550678 C9.64569713,7.77550678 9.53927866,7.80194509 9.45723538,7.85722519 C9.37638113,7.91190442 9.31217334,7.98040368 9.26461202,8.05851687 C9.21705069,8.13903354 9.18256873,8.22676065 9.16532775,8.32169822 C9.14511419,8.41663579 9.13500741,8.4983542 9.13500741,8.56805519 L9.13500741,18.2637043 C9.13500741,18.404308 9.16948937,18.538903 9.23488619,18.6680902 C9.30087753,18.7984792 9.45961345,18.8621715 9.70752685,18.8621715 C9.89777214,18.8621715 10.0547245,18.8098957 10.1777894,18.7059451 C10.3032324,18.6013936 10.3638731,18.4631933 10.3638731,18.2949496 L10.3638731,15.4936905 L9.69088038,15.4936905 L9.69088038,13.7139116 L12.3543145,13.7139116 L12.3543145,18.1885954 C12.3543145,19.0484414 12.1301818,19.6985834 11.6813218,20.1426269 C11.2330563,20.5866703 10.5993017,20.8089924 9.77946335,20.8089924 C8.86212431,20.8089924 8.19567126,20.5884729 7.77475354,20.1492364 C7.35561937,19.7106008 7.14575503,19.0520466 7.14575503,18.1747754 L7.14575503,8.56805519 C7.14575503,7.73945454 7.37226584,7.0766942 7.82647648,6.57797154 C8.27949809,6.07804715 8.93524985,5.82988756 9.79492078,5.82988756 C10.6528082,5.82988756 11.3079654,6.07804715 11.7627706,6.57797154 C12.2169812,7.0766942 12.443492,7.73945454 12.443492,8.56805519 L12.443492,10.8038949 Z M24.8599702,13.3203413 C24.8593757,12.8156099 25.2582963,12.4070179 25.7523395,12.4058161 C25.717263,11.8956769 25.6530553,11.3933491 25.5614997,10.8994334 L25.5585271,10.9000343 C25.0823194,11.0316249 24.5930322,10.7414044 24.4646167,10.2534974 C24.3367956,9.7661913 24.62038,9.26626691 25.0965878,9.13467623 L25.0995604,9.13467623 C24.9372573,8.65337883 24.7464175,8.18409884 24.530608,7.73044148 L24.5288245,7.7322441 C24.1013671,7.98521065 23.5561954,7.83559385 23.308282,7.39816 C23.0609631,6.96072616 23.2078087,6.40251731 23.6358606,6.14834902 C23.3582214,5.72834042 23.0550179,5.32695881 22.7316009,4.94480507 C22.3820252,5.3005205 21.817829,5.3005205 21.4688478,4.94480507 C21.119272,4.58908963 21.119272,4.00864857 21.4688478,3.65173139 C21.0931133,3.32065166 20.7013269,3.01120326 20.290516,2.72699144 L20.290516,2.72759231 C20.0431971,3.16322354 19.4980254,3.31524382 19.071757,3.0616764 C18.6431106,2.80870985 18.4974541,2.25110187 18.7429894,1.81426889 L18.7441784,1.81186541 C18.3018581,1.59014413 17.8434858,1.39726465 17.3726287,1.22962173 L17.3726287,1.23202522 C17.2448077,1.72053307 16.753737,2.00895099 16.2787183,1.87856205 C15.8025105,1.74937486 15.5195206,1.24764785 15.6455582,0.759140001 L15.6473417,0.756736518 C15.1657833,0.663000694 14.6735236,0.59630405 14.1741297,0.55965094 C14.1741297,1.06558404 13.7740201,1.47477697 13.2823549,1.47477697 C12.7877171,1.47477697 12.389391,1.06558404 12.389391,0.55965094 C11.8882136,0.59630405 11.3977374,0.663000694 10.916179,0.756736518 L10.916179,0.759140001 C11.0445946,1.24644611 10.7621992,1.74937486 10.2848024,1.87856205 C9.80800015,2.00895099 9.31871302,1.72053307 9.19148648,1.23202522 L9.19148648,1.22841999 C8.71944034,1.39726465 8.26047356,1.59014413 7.81755873,1.81186541 L7.81934228,1.81246628 C8.06606665,2.25110187 7.91922106,2.80870985 7.49235818,3.0616764 C7.06490078,3.31524382 6.51913459,3.16322354 6.27241022,2.72759231 L6.2718157,2.72699144 C5.86159928,3.01120326 5.46862384,3.32065166 5.09407841,3.65173139 C5.44365415,4.00864857 5.44305963,4.58728702 5.09526745,4.94360333 C4.74450268,5.3005205 4.18030647,5.3005205 3.83191978,4.94480507 L3.83191978,4.94360333 C3.50731374,5.32695881 3.20470481,5.72834042 2.92706559,6.14834902 L2.9276601,6.14834902 C3.3551175,6.40251731 3.50077406,6.95952442 3.25523872,7.39695826 C3.0067308,7.83559385 2.46155913,7.98521065 2.03469624,7.7322441 L2.03291269,7.73044148 C1.81591415,8.18409884 1.62685789,8.65337883 1.46336584,9.13467623 L1.46633842,9.13467623 C1.94314069,9.26566604 2.22553606,9.7661913 2.097715,10.2534974 C1.96989394,10.7414044 1.4800123,11.0316249 1.00439906,10.8994334 L1.00261551,10.8994334 C0.911059961,11.3927482 0.846257657,11.8950761 0.811181181,12.4058161 C1.30344088,12.4058161 1.70236149,12.8156099 1.70236149,13.3203413 C1.70414504,13.8238709 1.30344088,14.2336647 0.811181181,14.2336647 C0.846257657,14.7444048 0.911059961,15.2473335 1.00261551,15.7394466 L1.00439906,15.7394466 C1.4800123,15.6096585 1.96989394,15.8986773 2.097715,16.3841808 C2.22553606,16.8720878 1.94314069,17.3750166 1.46633842,17.5042038 L1.46336584,17.5042038 C1.62566886,17.986102 1.81591415,18.455382 2.03291269,18.9084385 L2.03410173,18.9078376 C2.46155913,18.655472 3.0067308,18.8050888 3.25523872,19.2425226 C3.50077406,19.6793556 3.3551175,20.2381653 2.9276601,20.4899301 L2.92706559,20.4899301 C3.20470481,20.9111404 3.50731374,21.312522 3.83191978,21.6958775 C4.18030647,21.3389604 4.74450268,21.3389604 5.09407841,21.6958775 C5.44305963,22.0521938 5.44305963,22.6314332 5.09407841,22.9865477 C5.46862384,23.3194301 5.86159928,23.6294793 6.2718157,23.9130903 L6.2718157,23.9118886 C6.51913459,23.4750556 7.06490078,23.3260397 7.49235818,23.5772036 C7.91922106,23.8313719 8.06606665,24.3889799 7.81934228,24.8270146 L7.81755873,24.8294181 C8.26047356,25.0493367 8.71944034,25.243418 9.18970293,25.41046 L9.19148648,25.4074556 C9.31871302,24.9207504 9.80800015,24.6311307 10.2848024,24.7621205 C10.7604157,24.8919086 11.0434055,25.3924339 10.916179,25.8803409 L10.9155845,25.8809417 C11.3977374,25.977081 11.8882136,26.0431768 12.389391,26.0792291 C12.389391,25.5738968 12.7877171,25.1647039 13.2817604,25.1647039 C13.7740201,25.1647039 14.1741297,25.5738968 14.1741297,26.0774264 L14.1741297,26.0792291 C14.6735236,26.0431768 15.1645943,25.977081 15.6455582,25.8809417 L15.6455582,25.8803409 C15.5195206,25.3924339 15.8025105,24.8919086 16.2775293,24.7621205 C16.753737,24.6311307 17.2430241,24.9207504 17.3720342,25.4074556 L17.3726287,25.41046 C17.8434858,25.243418 18.3012636,25.0493367 18.7441784,24.8294181 L18.7429894,24.8270146 C18.4974541,24.3889799 18.6431106,23.8313719 19.0711625,23.5784053 C19.4974309,23.3260397 20.0431971,23.4750556 20.290516,23.9118886 L20.290516,23.9130903 C20.7013269,23.6294793 21.0931133,23.3194301 21.4688478,22.9883503 L21.4688478,22.9865477 C21.119272,22.6314332 21.119272,22.0521938 21.4688478,21.6958775 C21.817829,21.3389604 22.3820252,21.3389604 22.7316009,21.6958775 C23.0550179,21.3137238 23.3582214,20.9123422 23.6358606,20.4911318 L23.6358606,20.4899301 C23.2078087,20.2387662 23.0609631,19.6793556 23.308282,19.2425226 C23.5544118,18.8050888 24.1013671,18.6560728 24.5282299,18.9078376 L24.530608,18.9102411 C24.7464175,18.455382 24.9372573,17.9879046 25.0995604,17.5048046 L25.0965878,17.5042038 C24.62038,17.3750166 24.3367956,16.8732896 24.4646167,16.3865843 C24.5918432,15.8986773 25.0823194,15.6096585 25.5585271,15.7394466 L25.5614997,15.7394466 C25.6530553,15.2473335 25.717263,14.7444048 25.7523395,14.2336647 C25.2582963,14.2336647 24.8593757,13.8238709 24.8599702,13.3203413 Z" id="Fill-25" fill="#333333" mask="url(#mask-2)"></path>
            <path d="M16.0775339,13.589952 C15.595381,13.589952 15.2041891,13.989531 15.2041891,14.4834467 C15.2041891,14.9773623 15.595381,15.3781431 16.0775339,15.3781431 C16.5602813,15.3781431 16.9526622,14.9773623 16.9526622,14.4834467 C16.9526622,13.989531 16.5602813,13.589952 16.0775339,13.589952" id="Fill-28" fill="#333333" mask="url(#mask-2)"></path>
            <mask id="mask-4" fill="white">
                <use xlink:href="#path-3"></use>
            </mask>
            <g id="Clip-53"></g>
        </g>
    </g>
</svg>