<?xml version="1.0" encoding="UTF-8"?>
<svg width="54px" height="56px" viewBox="0 0 54 56" version="1.1" xmlns="http://www.w3.org/2000/svg" xmlns:xlink="http://www.w3.org/1999/xlink">
    <!-- Generator: Sketch 50.2 (55047) - http://www.bohemiancoding.com/sketch -->
    <title>star image</title>
    <desc>Created with Sketch.</desc>
    <defs></defs>
    <g id="star-image" stroke="none" stroke-width="1" fill="none" fill-rule="evenodd">
        <g id="Group-10-Copy" transform="translate(2.000000, 2.000000)">
            <path d="M24.3800166,0.439212495 L16.2150004,15.9190646 C15.9763585,16.3714998 15.5357792,16.6825624 15.029566,16.756018 L0.682322718,18.8379177 C0.24507436,18.9013659 -0.0579505144,19.3072607 0.00549771772,19.7445091 C0.0265023984,19.8892611 0.0867902097,20.0254843 0.179805898,20.1383667 L10.7714946,32.9922764 C11.1330639,33.4310713 11.2346084,34.0287866 11.0382341,34.5623693 L5.01887864,50.9179895 C4.86627925,51.3326282 5.07870407,51.7924655 5.49334275,51.9450649 C5.71135321,52.0252992 5.95347365,52.0068063 6.15676987,51.8943929 L24.3848684,41.8151032 C24.8834064,41.5394349 25.4909179,41.5496345 25.9799211,41.8418828 L42.739018,51.8578061 C43.1182763,52.0844665 43.6094705,51.9607613 43.8361308,51.581503 C43.9530551,51.38586 43.9809796,51.1496331 43.9128948,50.9321201 L38.761533,34.4748768 C38.6092271,33.9882995 38.6979406,33.4582661 39.0003875,33.0478024 L49.8463337,18.3282986 C50.1084255,17.9726025 50.0325442,17.4717865 49.6768481,17.2096948 C49.5447339,17.1123475 49.3858783,17.0579848 49.2218216,17.053978 L33.2926792,16.6649393 C32.6514548,16.6492786 32.0815574,16.2521961 31.8447657,15.656089 L25.8311063,0.517107621 C25.6679965,0.106489786 25.2028984,-0.0941551436 24.7922806,0.0689546286 C24.615139,0.139320602 24.4689416,0.270621721 24.3800166,0.439212495 Z" id="Path-24" stroke="#333333" stroke-width="4"></path>
            <path d="M29.9953904,27.6172595 C30.0999169,30.2657214 28.4198654,30.8871501 25.6607026,30.9874828 C22.9015715,31.0878461 20.1081809,30.6290731 20.0036544,27.9806112 C19.8990961,25.3321798 22.0510582,23.1038405 24.8102528,23.0035077 C27.5693839,22.9031444 29.8908639,24.9687977 29.9953904,27.6172595 Z" id="Stroke-3-Copy" stroke="#FFE861" stroke-width="5"></path>
        </g>
    </g>
</svg>